<?xml version="1.0" encoding="UTF-8"?>
<svg width="152" height="50" version="1.1" viewBox="0 0 152 50" xmlns="http://www.w3.org/2000/svg">
 <g fill="#ff6000">
  <path d="m24.414 26.627c-0.61774-0.7935-1.455-1.4336-2.5137-1.9202-1.0587-0.4847-2.1398-0.7285-3.2422-0.7285-1.1471 0-2.1835 0.2321-3.1101 0.6954-0.92564 0.4643-1.7202 1.083-2.3816 1.8542-0.66145 0.7732-1.1801 1.6668-1.555 2.6818-0.37492 1.0159-0.5614 2.097-0.5614 3.2441 0 1.149 0.17483 2.23 0.52838 3.245 0.35258 1.016 0.87125 1.9096 1.555 2.6818 0.68379 0.7721 1.4987 1.3792 2.4486 1.8211 0.94798 0.442 2.0174 0.6615 3.2082 0.6615 1.1024 0 2.1941-0.2088 3.2752-0.6284 1.0801-0.4196 1.9513-1.0267 2.6137-1.8212l6.02 7.3497c-1.3676 1.3239-3.1324 2.3622-5.2926 3.112-2.1621 0.7499-4.4553 1.1248-6.8806 1.1248-2.6031 0-5.0322-0.3963-7.2886-1.1908-2.2553-0.7945-4.2154-1.9533-5.8792-3.4762-1.6638-1.524-2.9731-3.3656-3.9269-5.5296-0.95381-2.1621-1.4307-4.6117-1.4307-7.3497 0-2.6915 0.4769-5.1197 1.4307-7.2828 0.95381-2.163 2.2631-4.0065 3.9269-5.5285 1.6638-1.524 3.6239-2.6925 5.8792-3.5103 2.2563-0.8168 4.6632-1.2238 7.2225-1.2238 1.1908 0 2.3699 0.1098 3.5394 0.3302 1.1675 0.2215 2.2922 0.5197 3.3743 0.8936 1.0801 0.3759 2.0727 0.8402 2.977 1.3909 0.9033 0.5517 1.6871 1.1588 2.3486 1.8212z"/>
  <path d="m57.494 32.427c0-1.0597-0.18843-2.096-0.56238-3.112-0.37492-1.015-0.90427-1.9212-1.5881-2.7148-0.68379-0.7945-1.5113-1.4346-2.4807-1.9212-0.97129-0.4846-2.0737-0.7284-3.3082-0.7284-1.2802 0-2.4049 0.2438-3.3743 0.7284-0.97032 0.4866-1.7862 1.116-2.4476 1.8882-0.66145 0.7732-1.1578 1.6667-1.489 2.6817-0.33121 1.015-0.49633 2.0524-0.49633 3.1121 0 1.0587 0.16512 2.1086 0.49633 3.145 0.33121 1.0373 0.82754 1.9532 1.489 2.7478 0.66145 0.7935 1.4773 1.4355 2.4476 1.9202 0.96935 0.4866 2.0941 0.7285 3.3743 0.7285 1.2345 0 2.3369-0.2419 3.3082-0.7285 0.96935-0.4847 1.7969-1.1267 2.4807-1.9202 0.68379-0.7946 1.2131-1.6988 1.5881-2.7148 0.37395-1.015 0.56238-2.0523 0.56238-3.112m0.39726 16.553v-4.3038h-0.1321c-1.0587 1.6784-2.57 2.9693-4.533 3.8745-1.963 0.9033-4.0464 1.3569-6.2522 1.3569-2.47 0-4.6748-0.4866-6.6154-1.4569-1.9416-0.9704-3.5841-2.2612-4.9293-3.8735-1.3462-1.6104-2.3709-3.4763-3.0761-5.5947-0.70613-2.1193-1.0587-4.3261-1.0587-6.6212 0-2.2952 0.36326-4.4913 1.0917-6.5893 0.7275-2.096 1.7629-3.9385 3.1091-5.5285 1.3452-1.5891 2.978-2.8479 4.8963-3.7745s4.0687-1.3899 6.4503-1.3899c2.4253 0 4.4767 0.4633 6.1531 1.3899 1.6755 0.9266 2.977 1.9436 3.9036 3.046h0.1321v-18.111h10.85v47.576z"/>
  <path d="m139.03 49.027h-11.711l-12.967-32.973h11.975l6.9467 21.386h0.19815l6.9466-21.386h11.579z"/>
  <path d="m84.755 39.027c-0.88387-0.4147-2.0766-1.1451-2.739-2.2718-0.85085-1.4473-0.7139-3.7123 0.31858-5.2683 1.5191-2.2903 4.0464-2.5943 6.5008-1.8328 3.5161 1.0888 6.7883 3.0032 9.4681 5.5315-3.2859 4.1775-9.2272 5.8656-13.549 3.8414m25.439-5.1945c-0.0544-0.085 0.21077-0.6935 0.2438-0.811 1.5317-5.4033 1.4258-11.549-0.2506-16.914l-9.3292 3.3947c0.41182 1.725 0.57306 3.5306 0.59054 5.2595-3.6122-2.2942-7.3905-4.1989-11.487-5.4596-1.5006-0.4614-3.5763-0.8217-4.6845-2.0378-0.74206-0.8159-0.85376-2.605-0.23797-3.8298 0.69739-1.3889 2.2709-2.4535 4.0066-2.7118 2.4127-0.3584 5.007 0.3312 7.1089 1.6871l6.2833-7.4605c-4.1688-3.2703-9.4332-5.0351-14.876-4.226-5.0361 0.7488-9.3535 3.8025-11.548 8.1704-2.2427 4.4651-1.8979 9.9062 0.73235 13.817-1.0791 0.9208-2.0358 1.9941-2.8255 3.1839-3.1742 4.7836-3.4189 11.209-0.60997 15.987 1.5628 2.6584 4.0396 4.837 7.1623 6.3008 2.5739 1.2053 5.4149 1.8163 8.321 1.8163 1.9212 0 3.8716-0.2671 5.7908-0.8052 3.418-0.9577 6.5795-2.7255 9.1777-5.0954 0.39046 1.5317 0.5818 3.1538 0.5818 4.8895h10.1c0-5.583-1.4268-10.658-4.2504-15.155"/>
 </g>
</svg>
