<?xml version="1.0" encoding="UTF-8" standalone="no"?>
<!-- Created with Inkscape (http://www.inkscape.org/) -->
<svg
   xmlns:svg="http://www.w3.org/2000/svg"
   xmlns="http://www.w3.org/2000/svg"
   version="1.0"
   width="654.38708"
   height="154.57185"
   id="svg2">
  <defs
     id="defs4" />
  <g
     transform="translate(-60.716421,-610.41723)"
     id="layer1">
    <path
       d="M 62.899191,657.98384 C 65.407722,647.16726 70.724927,638.047 79.906703,628.81194 C 92.990261,615.65244 105.70934,610.4383 124.77726,610.41739 C 133.7733,610.40752 136.89552,610.84009 143.26767,612.97915 C 153.86938,616.53803 161.04489,621.16904 168.96306,629.56272 L 175.72001,636.72544 L 175.09552,644.11318 C 174.44997,651.75004 170.71382,664.47807 167.72999,669.20555 C 157.029,686.15981 142.35052,694.23374 101.95358,705.38601 C 91.643177,708.23237 79.390553,714.09844 71.734116,719.85389 C 68.403862,722.35729 65.478867,724.40552 65.234128,724.40552 C 58.422045,704.20792 60.777315,679.08088 62.899191,657.98384 z M 95.354281,682.37345 C 98.874663,681.27 105.62466,679.41964 110.35428,678.26153 C 115.08389,677.10342 121.8641,674.74955 125.4214,673.0307 C 133.37861,669.18586 143.12354,660.26524 146.85412,653.41094 C 151.3419,646.839 146.15605,644.57427 140.54489,641.65143 C 135.72086,639.28233 133.78715,638.91558 126.45358,638.97885 C 104.22038,639.17066 88.180134,654.65609 86.909097,677.15552 C 86.439323,685.47127 86.113469,685.26994 95.354281,682.37345 z "
       style="fill:#088c39;fill-opacity:1"
       id="path2221" />
    <path
       d="M 116.71111,764.43954 C 105.40665,762.81049 98.763127,760.39679 90.457011,754.90101 C 84.639399,751.05177 75.211112,742.1333 75.211112,740.47952 C 75.211112,738.95097 85.330235,731.87402 93.000622,728.03817 L 100.29013,724.3928 L 103.73151,727.83418 C 113.42024,737.52291 129.59728,739.09401 141.55922,731.50797 C 144.0188,729.94815 147.88587,726.16135 150.15269,723.09286 C 153.30349,718.82777 154.88175,717.51378 156.85378,717.51378 C 160.36562,717.51378 176.08578,727.14461 177.44567,730.12924 C 179.23061,734.04675 171.91339,743.5349 159.5857,753.28803 C 149.63308,761.16211 129.78731,766.32392 116.71111,764.43954 z M 264.21111,764.41277 C 253.91438,762.77647 248.63839,761.01666 241.47056,756.82767 C 226.05393,747.81793 215.67376,733.94418 211.77655,717.1397 C 210.59483,712.04425 210.21111,704.70088 210.21111,687.18163 C 210.21111,666.78145 210.46165,663.06947 212.28192,656.5008 C 215.4192,645.17954 219.70638,637.9923 228.69693,628.98187 C 241.53083,616.11958 255.09077,610.51378 273.36959,610.51378 C 286.02559,610.51378 296.15323,613.58061 306.6238,620.58375 C 320.69906,629.99786 325.62329,638.29634 319.46111,642.21763 C 317.94861,643.1801 316.48611,644.23307 316.21111,644.55756 C 315.04141,645.93776 304.56159,653.27391 302.95078,653.84015 C 301.70672,654.27746 299.27533,652.72338 294.66047,648.54121 C 286.29018,640.95571 280.24337,638.54188 270.71111,638.98083 C 262.20549,639.3725 257.49992,641.28461 251.55412,646.76526 C 246.34604,651.56589 242.94094,657.74646 241.33549,665.313 C 239.60963,673.44703 239.88608,703.83606 241.7516,711.05368 C 246.54466,729.59785 264.31396,740.29959 281.64923,735.08244 C 288.47125,733.02932 293.53883,729.33841 298.20145,723.02686 C 303.42213,715.95988 305.14288,715.92398 316.0508,722.65442 C 325.67929,728.59543 327.37646,731.06211 324.69837,735.22282 C 311.77966,755.29338 285.77986,767.84038 264.21111,764.41277 z M 397.21111,763.80853 C 376.38526,759.91532 358.75807,744.8807 350.55417,724.01378 C 347.84825,717.13119 347.79564,716.57869 347.41751,691.07404 C 347.09334,669.20902 347.29892,664.02525 348.72622,658.07404 C 353.42055,638.50084 368.09071,622.15016 388.1554,614.12809 C 395.22405,611.30198 396.58135,611.10424 409.21111,611.06051 C 420.82784,611.0203 423.65178,611.33871 429.45415,613.34299 C 444.30798,618.47388 457.52749,630.14406 464.58559,644.357 C 470.38164,656.02855 470.71111,658.37673 470.71111,688.01378 C 470.71111,713.47893 470.58246,715.38328 468.44794,721.51378 C 458.05113,751.37429 427.55423,769.48092 397.21111,763.80853 z M 422.98671,733.12749 C 429.29746,729.9296 435.50139,722.9065 438.41604,715.66087 C 440.54357,710.37197 440.68766,708.58661 440.68766,687.51378 C 440.68766,666.32108 440.55319,664.67902 438.37322,659.25224 C 435.56106,652.25168 428.62258,644.85122 421.71111,641.48073 C 414.5462,637.98664 402.57489,637.98361 395.78814,641.47416 C 389.47257,644.72238 382.83086,652.2831 380.11837,659.31215 C 378.09167,664.56404 377.91656,666.76255 377.89835,687.18415 C 377.87666,711.49633 378.40726,714.44148 384.39299,723.2338 C 392.77902,735.55188 409.66163,739.87982 422.98671,733.12749 z M 554.71111,763.8501 C 531.92263,759.4927 512.56311,741.01615 506.72614,718.05368 C 505.47876,713.1465 505.21352,703.8718 505.22476,665.55368 C 505.23227,639.95674 505.49541,618.05613 505.80952,616.88568 C 506.68537,613.62198 510.4404,612.51378 520.6233,612.51378 C 528.53597,612.51378 530.3388,612.82638 532.57625,614.58636 L 535.21111,616.65894 L 535.23556,661.33636 C 535.24969,687.16397 535.67765,707.82436 536.2499,710.30519 C 538.57444,720.38257 545.25628,729.45553 553.42081,733.62076 C 555.51759,734.69046 560.70096,736.00534 564.93941,736.54273 C 569.17786,737.08011 573.25172,738.12582 573.99242,738.86652 C 575.57868,740.45278 576.31038,755.33976 575.03886,760.15716 C 574.58254,761.88602 573.42212,763.62283 572.46015,764.01673 C 569.34844,765.29091 561.87959,765.22079 554.71111,763.8501 z M 646.71111,764.83156 C 625.51571,761.25518 610.62033,751.96456 600.78691,736.18748 C 592.12814,722.29505 591.02118,716.74675 591.0759,687.51378 C 591.1095,669.56386 591.48847,662.59674 592.68053,658.01378 C 597.95965,637.71784 613.06831,621.25049 633.26877,613.77554 C 639.97406,611.29432 641.99855,611.0212 653.71111,611.01768 C 664.70595,611.01438 667.74306,611.37035 673.40155,613.32549 C 686.93658,618.00217 700.73935,629.47819 707.00627,641.26543 C 714.17392,654.74684 714.51496,656.55173 714.9773,683.45182 C 715.4165,709.00513 714.84708,715.06624 711.05507,725.2013 C 703.83773,744.49135 682.84359,761.16056 662.21111,763.98307 C 655.83704,764.85504 649.05161,765.22648 646.71111,764.83156 z M 667.11424,732.96999 C 676.59572,727.80952 682.35895,719.49821 684.16227,708.38455 C 685.46343,700.36563 685.51086,674.91487 684.23912,667.14932 C 681.58956,650.97062 669.58494,639.63934 654.39047,638.97489 C 644.6154,638.54743 638.92338,640.72079 632.12374,647.47692 C 622.87503,656.66642 621.87873,660.44824 621.83963,686.51378 C 621.80426,710.09822 622.4049,713.90716 627.39786,721.7608 C 636.05372,735.37598 653.5967,740.32715 667.11424,732.96999 z "
       style="fill:#5aad39;fill-opacity:1"
       id="path3217" />
  </g>
</svg>
