<svg xmlns:xlink="http://www.w3.org/1999/xlink" width="269" height="120" viewBox="0 0 269 120" fill="none" xmlns="http://www.w3.org/2000/svg">
<path d="M33.0863 0C25.1806 0 18.9428 2.24357 14.5478 6.66912L6.62354 15.1367C2.22852 19.5615 0 25.8398 0 33.799V94.6686C0 102.628 2.22852 108.908 6.62354 113.332C11.0186 117.756 17.2547 120 25.1621 120H251.772C254.88 120 257.874 118.573 260.668 115.759L269 107.371V0H33.0863Z" fill="url(#paint0_linear_446_2882)"/>
<path d="M39.8735 65.6508H45.7125V84.3514C45.7125 86.5946 44.6067 87.7157 42.3951 87.7147H39.343C37.1308 87.7147 36.0251 86.5936 36.0256 84.3514V27.5782C36.0256 25.3371 37.1314 24.216 39.343 24.2149H41.9964C44.2069 24.2149 45.3127 25.336 45.3138 27.5782V43.5838H63.6256V25.5596C63.6256 13.9021 57.8754 8.07222 46.3748 8.07007H34.6962C23.1945 8.07007 17.4442 13.8999 17.4453 25.5596V86.3692C17.4453 98.0294 23.1956 103.859 34.6962 103.859H46.6409C58.1404 103.859 63.8906 98.0289 63.8916 86.3692V49.9102H39.8735V65.6508Z" fill="white"/>
<path fill-rule="evenodd" clip-rule="evenodd" d="M107.285 58.5209C112.593 56.5492 115.247 51.8853 115.247 44.5291V26.3672C115.247 14.7086 109.497 8.87877 97.9962 8.87768H70.2612V103.051H88.8382V67.3997H93.4828C95.6933 67.3997 96.799 68.5208 96.8001 70.763V103.051H115.377V70.6285C115.377 64.0829 112.679 60.047 107.283 58.5209H107.285ZM96.6667 48.0268C96.6667 50.2696 95.5606 51.3907 93.3485 51.3901H88.8367V25.2907H93.3485C95.5591 25.2907 96.6651 26.4117 96.6667 28.6539V48.0268Z" fill="white"/>
<path fill-rule="evenodd" clip-rule="evenodd" d="M138.6 8.07088H150.541C162.042 8.07252 167.792 13.9023 167.792 25.5604V86.37C167.792 98.0297 162.042 103.86 150.542 103.86H138.6C127.099 103.86 121.349 98.0302 121.349 86.37V25.5604C121.348 13.9007 127.098 8.07088 138.6 8.07088ZM145.897 87.7147C148.108 87.7152 149.214 86.5941 149.214 84.3514L149.217 27.5782C149.216 25.336 148.11 24.2149 145.9 24.2149H143.243C141.032 24.216 139.926 25.3371 139.926 27.5782V84.3514C139.925 86.5936 141.031 87.7147 143.243 87.7147H145.897Z" fill="white"/>
<path d="M192.739 63.6338H208V46.8166H192.739V25.6949H208.661V8.8785H174.161V103.052H208.928V86.2347H192.739V63.6338Z" fill="white"/>
<path d="M233.874 8.87605L244.623 55.6963L244.218 8.87768H260.278V103.052H242.231L230.553 51.9296L230.953 103.052H214.898V8.87605H233.874Z" fill="white"/>
<defs>
<linearGradient id="paint0_linear_446_2882" x1="10.0674" y1="120.004" x2="269.608" y2="1.32892" gradientUnits="userSpaceOnUse">
<stop stop-color="#02AD5B"/>
<stop offset="0.25" stop-color="#02AD5B"/>
<stop offset="0.494792" stop-color="#7A4DF4"/>
<stop offset="0.770311" stop-color="#F995CE"/>
<stop offset="1" stop-color="#F2BF56"/>
</linearGradient>
</defs>
</svg>