<?xml version="1.0" encoding="UTF-8" standalone="no"?>
<!DOCTYPE svg PUBLIC "-//W3C//DTD SVG 1.1//EN" "http://www.w3.org/Graphics/SVG/1.1/DTD/svg11.dtd">
<svg width="100%" height="100%" viewBox="0 0 3189 2481" version="1.1" xmlns="http://www.w3.org/2000/svg" xmlns:xlink="http://www.w3.org/1999/xlink" xml:space="preserve" xmlns:serif="http://www.serif.com/" style="fill-rule:evenodd;clip-rule:evenodd;stroke-linejoin:round;stroke-miterlimit:2;">
    <g transform="matrix(1.53563,0,0,1.53563,-1098.07,-390.851)">
        <circle cx="1753.94" cy="854.5" r="599.978" style="fill:rgb(0,230,210);"/>
    </g>
    <g transform="matrix(18.658,0,0,18.658,-364.678,-1255.74)">
        <path d="M127.653,197.94C127.31,197.437 126.685,197.379 122.066,197.078C119.737,196.926 117.197,196.612 116.421,196.38C113.753,195.584 112.341,193.477 112.949,191.199C113.319,189.809 114.082,188.975 115.713,188.177L117.152,187.473L115.905,186.616C115.219,186.144 114.3,185.183 113.864,184.48C113.153,183.335 113.07,182.979 113.07,181.064C113.07,179.197 113.164,178.767 113.815,177.659C115.314,175.11 118.427,173.707 122.595,173.705C128.914,173.701 132.805,176.427 132.881,180.911C132.969,186.163 127.457,189.426 120.362,188.322C118.66,188.058 118.149,188.057 117.832,188.32C117.232,188.818 117.33,190.097 117.995,190.453C118.302,190.618 121.013,190.902 124.019,191.084C129.954,191.445 131.5,191.829 132.371,193.158C133.866,195.439 133.116,197.924 130.57,199.268C130.499,199.311 130.414,199.354 130.312,199.397C130.303,199.401 130.293,199.406 130.284,199.41C129.647,199.71 128.987,199.938 128.457,200.059C127.87,200.223 127.605,200.239 127.605,200.239C127.605,200.239 127.545,200.18 127.462,200.102C127.448,200.093 127.435,200.084 127.424,200.073L127.424,200.073C127.418,200.066 127.412,200.058 127.408,200.049C127.241,199.89 127.029,199.687 127.029,199.687C127.029,199.687 128.077,198.641 127.653,197.94ZM123.797,187.255C124.742,186.749 125.177,184.406 125.067,180.412C124.984,177.379 124.883,176.662 124.429,175.884C123.854,174.9 123.35,174.679 122.292,174.944C121.266,175.202 120.821,176.628 120.677,180.118C120.441,185.819 121.586,188.438 123.797,187.255Z" style="fill:rgb(46,51,71);"/>
    </g>
    <g transform="matrix(18.658,0,0,18.658,-1217.91,-1255.74)">
        <path d="M127.653,197.94C127.31,197.437 126.685,197.379 122.066,197.078C119.737,196.926 117.197,196.612 116.421,196.38C113.753,195.584 112.341,193.477 112.949,191.199C113.319,189.809 114.082,188.975 115.713,188.177L117.152,187.473L115.905,186.616C115.219,186.144 114.3,185.183 113.864,184.48C113.153,183.335 113.07,182.979 113.07,181.064C113.07,179.197 113.164,178.767 113.815,177.659C115.314,175.11 118.427,173.707 122.595,173.705C128.914,173.701 132.805,176.427 132.881,180.911C132.969,186.163 127.457,189.426 120.362,188.322C118.66,188.058 118.149,188.057 117.832,188.32C117.232,188.818 117.33,190.097 117.995,190.453C118.302,190.618 121.013,190.902 124.019,191.084C129.954,191.445 131.5,191.829 132.371,193.158C133.866,195.439 133.116,197.924 130.57,199.268C130.499,199.311 130.414,199.354 130.312,199.397C130.303,199.401 130.293,199.406 130.284,199.41C129.647,199.71 128.987,199.938 128.457,200.059C127.87,200.223 127.605,200.239 127.605,200.239C127.605,200.239 127.545,200.18 127.462,200.102C127.448,200.093 127.435,200.084 127.424,200.073L127.424,200.073C127.418,200.066 127.412,200.058 127.408,200.049C127.241,199.89 127.029,199.687 127.029,199.687C127.029,199.687 128.077,198.641 127.653,197.94ZM123.797,187.255C124.742,186.749 125.177,184.405 125.067,180.412C124.984,177.379 124.883,176.662 124.429,175.884C123.854,174.9 123.35,174.679 122.292,174.944C121.266,175.202 120.821,176.628 120.677,180.118C120.441,185.819 121.586,188.438 123.797,187.255Z" style="fill:rgb(46,51,71);"/>
    </g>
    <g transform="matrix(18.658,0,0,18.658,-364.414,-1255.74)">
        <path d="M141.753,191.8C138.029,190.575 135.945,187.906 135.517,183.819C135.215,180.926 136.416,177.491 138.311,175.827C140.509,173.897 144.267,172.954 147.717,173.467C152.358,174.158 154.736,176.674 155.188,181.374L155.347,183.028L143.29,183.028L143.262,185.915C143.251,189.059 144.086,190.611 145.258,191.167C146.018,191.527 148.127,191.437 148.127,187.535C148.127,186.184 147.962,185.774 147.962,185.774L155.224,185.774C155.224,185.774 154.854,189.547 151.126,191.272C149.423,192.059 149.137,192.325 146.281,192.386C143.899,192.437 142.909,192.181 141.753,191.8ZM147.73,179.439C147.73,175.8 147.591,174.419 146.098,174.386C144.606,174.354 143.284,175.216 143.284,181.463L147.73,181.473L147.73,179.439Z" style="fill:rgb(46,51,71);"/>
    </g>
    <g transform="matrix(18.658,0,0,18.658,-2095.19,-1686.77)">
        <path d="M141.753,191.8C138.029,190.575 135.945,187.906 135.517,183.819C135.215,180.926 136.416,177.491 138.311,175.827C140.509,173.897 144.267,172.954 147.717,173.467C152.358,174.158 154.736,176.674 155.188,181.374L155.347,183.028L143.29,183.028L143.262,185.915C143.251,189.059 144.086,190.611 145.258,191.167C146.018,191.527 148.127,191.437 148.127,187.535C148.127,186.184 147.962,185.774 147.962,185.774L155.224,185.774C155.224,185.774 154.854,189.547 151.126,191.272C149.423,192.059 149.137,192.325 146.281,192.386C143.899,192.437 142.909,192.181 141.753,191.8ZM147.73,179.439C147.73,175.8 147.591,174.419 146.098,174.386C144.606,174.354 143.284,175.216 143.284,181.463L147.73,181.473L147.73,179.439Z" style="fill:rgb(46,51,71);"/>
    </g>
    <g transform="matrix(18.658,0,0,18.658,-117.792,-1255.74)">
        <path d="M145.409,173.335C146.18,173.312 146.956,173.354 147.717,173.467C152.358,174.158 154.736,176.674 155.188,181.374L155.347,183.028L145.409,183.028L145.409,181.468L147.73,181.473L147.73,179.439C147.73,175.8 147.591,174.419 146.098,174.386C145.863,174.381 145.632,174.398 145.409,174.455L145.409,173.335Z" style="fill:rgb(46,51,71);"/>
    </g>
    <g transform="matrix(18.658,0,0,18.658,-117.792,-1255.74)">
        <path d="M145.409,191.226C146.264,191.502 148.127,191.202 148.127,187.535C148.127,186.184 147.945,185.774 147.945,185.774L155.207,185.774C155.207,185.774 154.69,189.547 151.126,191.272C149.437,192.089 149.137,192.325 146.281,192.386C145.967,192.393 145.678,192.394 145.409,192.391L145.409,191.226Z" style="fill:rgb(46,51,71);"/>
    </g>
    <g transform="matrix(18.658,0,0,18.658,-364.678,-1255.74)">
        <path d="M43.352,191.759L43.352,173.768L50.231,173.768L50.231,178.061L50.97,176.647C51.408,175.808 52.136,174.932 52.756,174.496C55.042,172.889 59.074,172.952 60.978,174.625C63.018,176.415 63.44,178.445 63.452,186.534L63.46,191.759L55.788,191.759L55.776,186.402C55.757,177.726 55.413,176.149 53.539,176.149C52.492,176.149 51.912,176.759 51.363,178.439C51.025,179.473 50.951,180.886 50.982,185.74L51.02,191.759L43.352,191.759Z" style="fill:rgb(46,51,71);"/>
    </g>
    <g transform="matrix(1.53563,0,0,1.53563,-1098.07,-390.851)">
        <path d="M2202,1510L2216,1523L2324,1485C2311.34,1463.31 2298.26,1446.89 2285,1433L2202,1510Z" style="fill:rgb(46,51,71);"/>
    </g>
    <g transform="matrix(1.53563,0,0,1.53563,-3075.65,-820.674)">
        <path d="M2582.55,1677.12L2589.39,1679.56C2589.39,1679.56 2593.3,1727.48 2625,1748C2641.27,1758.54 2673.58,1766.72 2685.43,1750.92C2696.42,1736.28 2684.64,1712.47 2663,1698C2618.53,1668.28 2564.51,1652.49 2565,1604C2565.36,1568.5 2611.33,1541 2674,1541C2743.67,1541 2778,1567 2778,1567L2743.74,1622.36L2737.93,1620.39C2737.93,1620.39 2728.62,1595.82 2714.03,1575.95C2699.35,1555.95 2672.31,1546.71 2658,1560C2646.84,1570.37 2650.68,1585.25 2662.72,1598.13C2674.47,1610.71 2694.08,1621.29 2711.31,1631.54C2765.5,1663.73 2797.16,1686.09 2775,1734.16C2752.45,1783.08 2622.46,1786.99 2555,1743L2582.55,1677.12Z" style="fill:rgb(46,51,71);"/>
    </g>
    <g transform="matrix(18.658,0,0,18.658,-364.678,-1255.74)">
        <path d="M20.333,161.068L20.333,144.664L28.006,144.664L28.006,150.046C28.006,153.007 27.929,156.698 27.834,158.248L27.661,161.068L20.333,161.068Z" style="fill:rgb(46,51,71);"/>
    </g>
    <g transform="matrix(1.53563,0,0,1.53563,-1098.07,-390.851)">
        <path d="M1574,1608C1581.06,1576.14 1616.49,1542 1687,1542C1757.51,1542 1805,1567.07 1805,1649L1805,1767L1715,1767L1721,1708C1721,1708 1698.03,1793.27 1612,1772C1543.92,1755.17 1556.75,1685.11 1604,1659C1651.25,1632.89 1714.38,1635.58 1714.38,1635.58C1714.38,1635.58 1714.77,1609.8 1710,1584C1703.94,1551.26 1674.73,1542.32 1663,1573C1651.27,1603.68 1667,1621 1667,1621L1658,1627L1574,1608ZM1716,1648C1648.81,1648.95 1644.26,1732.48 1678,1738C1711.91,1743.55 1716,1648 1716,1648Z" style="fill:rgb(46,51,71);"/>
    </g>
    <g transform="matrix(1.53563,0,0,1.53563,-1098.07,-390.851)">
        <path d="M2582.55,1677.12L2589.39,1679.56C2589.39,1679.56 2593.3,1727.48 2625,1748C2641.27,1758.54 2673.58,1766.72 2685.43,1750.92C2696.42,1736.28 2684.64,1712.47 2663,1698C2618.53,1668.28 2564.51,1652.49 2565,1604C2565.36,1568.5 2611.33,1541 2674,1541C2743.67,1541 2778,1567 2778,1567L2743.74,1622.36L2737.93,1620.39C2737.93,1620.39 2728.62,1595.82 2714.03,1575.95C2699.35,1555.95 2672.31,1546.71 2658,1560C2646.84,1570.37 2650.68,1585.25 2662.72,1598.13C2674.47,1610.71 2694.08,1621.29 2711.31,1631.54C2765.5,1663.73 2797.16,1686.09 2775,1734.16C2752.45,1783.08 2622.46,1786.99 2555,1743L2582.55,1677.12Z" style="fill:rgb(46,51,71);"/>
    </g>
    <g transform="matrix(1.53563,-1.93478e-18,-1.93478e-18,1.55143,-1098.07,-402.024)">
        <path d="M1753,691L1753,719.79C1753,748.625 1729.38,772 1700.25,772L1453,772L1453,691L1753,691Z" style="fill:white;"/>
    </g>
    <g transform="matrix(1.16032,-1.46192e-18,-1.46192e-18,1.17226,-1671.25,1037.31)">
        <path d="M1753,691L1753,702.903C1753,721.229 1745.64,738.804 1732.55,751.762C1719.46,764.72 1701.71,772 1683.19,772C1594.55,772 1453,772 1453,772L1453,691L1753,691Z" style="fill:rgb(46,51,71);"/>
    </g>
    <g transform="matrix(1.53563,-1.93478e-18,-1.93478e-18,1.55143,-1098.07,-150.693)">
        <path d="M1753,691L1753,719.79C1753,748.625 1729.38,772 1700.25,772L1453,772L1453,691L1753,691Z" style="fill:white;"/>
    </g>
    <g transform="matrix(1.16032,-1.46192e-18,-1.46192e-18,1.17226,-1671.25,1227.22)">
        <path d="M1753,691L1753,702.903C1753,721.229 1745.64,738.804 1732.55,751.762C1719.46,764.72 1701.71,772 1683.19,772C1594.55,772 1453,772 1453,772L1453,691L1753,691Z" style="fill:rgb(46,51,71);"/>
    </g>
    <g transform="matrix(1.53563,-1.93478e-18,-1.93478e-18,1.55143,-1098.07,100.639)">
        <path d="M1753,691L1753,719.79C1753,748.625 1729.38,772 1700.25,772L1453,772L1453,691L1753,691Z" style="fill:white;"/>
    </g>
    <g transform="matrix(1.16032,-1.46192e-18,-1.46192e-18,1.17226,-1671.25,1417.12)">
        <path d="M1753,691L1753,702.903C1753,721.229 1745.64,738.804 1732.55,751.762C1719.46,764.72 1701.71,772 1683.19,772C1594.55,772 1453,772 1453,772L1453,691L1753,691Z" style="fill:rgb(46,51,71);"/>
    </g>
    <g transform="matrix(-1.53563,-1.88061e-16,1.89995e-16,-1.55143,4285.85,1742.05)">
        <path d="M1753,691L1753,719.79C1753,748.625 1729.38,772 1700.25,772L1453,772L1453,691L1753,691Z" style="fill:white;"/>
    </g>
    <g transform="matrix(-1.53563,-1.88061e-16,1.89995e-16,-1.55143,4285.85,1993.38)">
        <path d="M1753,691L1753,719.79C1753,748.625 1729.38,772 1700.25,772L1453,772L1453,691L1753,691Z" style="fill:white;"/>
    </g>
    <g transform="matrix(-1.53563,-1.88061e-16,1.89995e-16,-1.55143,4285.85,2244.72)">
        <path d="M1753,691L1753,719.79C1753,748.625 1729.38,772 1700.25,772L1453,772L1453,691L1753,691Z" style="fill:white;"/>
    </g>
</svg>
