<?xml version="1.0" encoding="utf-8"?>
<!-- Generator: Adobe Illustrator 28.0.0, SVG Export Plug-In . SVG Version: 6.00 Build 0)  -->
<svg version="1.1" id="Layer_1" xmlns="http://www.w3.org/2000/svg" xmlns:xlink="http://www.w3.org/1999/xlink" x="0px" y="0px"
	 viewBox="0 0 354.3 119" style="enable-background:new 0 0 354.3 119;" xml:space="preserve">
<style type="text/css">
	.st0{fill:#FFFFFF;}
	.st1{fill:#FCBD1B;}
</style>
<path class="st0" d="M279,56.2l6.8-22.6l6.6,22.6C292.3,56.2,279,56.2,279,56.2z M252.1,20.7l-22.5,52.6h45.5l2.4-9.3h16.2l2.3,9.3
	H341l-25.1-52.6C315.9,20.7,252.1,20.7,252.1,20.7z"/>
<path class="st0" d="M112.7,20.7v52.6H73.9L51.1,49.4v23.9H14.4V20.7h36.8l24.8,23.7V20.7H112.7z"/>
<path class="st0" d="M230.3,20.7l-22.5,52.6h-66.6l-25.3-52.6h46.4c5.3,14.5,9.1,26.9,11.4,37.2c2.5-10.3,5-19.4,7.5-27.3l2.7-9.9
	C183.9,20.7,230.3,20.7,230.3,20.7z"/>
<polygon class="st1" points="257.4,28 232.9,45.9 214.2,20.4 238.7,2.4 "/>
<g>
	<polygon points="247.2,17.5 238.8,6 223.1,17.5 7.8,17.5 7.9,84.6 346.5,84.6 346.4,17.5 	"/>
	<path class="st0" d="M278.9,60.4l6.8-22.6l6.6,22.6H278.9z M252.1,24.9l-22.5,52.6h45.5l2.4-9.3h16.3l2.3,9.3H341l-25.1-52.6
		L252.1,24.9L252.1,24.9z"/>
	<path class="st0" d="M112.7,24.9v52.6H73.9L51.1,53.6v23.9H14.3V24.9h36.8l24.8,23.7V24.9H112.7z"/>
	<path class="st0" d="M230.3,24.9l-22.5,52.6h-66.6l-25.3-52.6h46.4c5.3,14.5,9.1,26.9,11.4,37.2c2.5-10.3,5-19.4,7.5-27.3l2.7-9.9
		L230.3,24.9L230.3,24.9z"/>
	<polygon class="st1" points="257.4,32.1 232.9,50.1 214.2,24.5 238.7,6.6 	"/>
	<g>
		<path d="M11.9,89.9l2.3,12h0.1l2.4-12h3.4l-3.7,16.2h-4.2L8.4,89.9H11.9z"/>
		<path d="M26.5,89.5c4.9,0,5.5,3.5,5.5,8.4s-0.6,8.4-5.5,8.4c-4.9,0-5.5-3.5-5.5-8.4C21,93,21.6,89.5,26.5,89.5z M26.5,104
			c1.9,0,2.2-1.7,2.2-6c0-4.3-0.3-6-2.2-6c-1.9,0-2.2,1.7-2.2,6C24.3,102.3,24.6,104,26.5,104z"/>
		<path d="M39.2,89.5c4.9,0,5.5,3.5,5.5,8.4s-0.6,8.4-5.5,8.4c-4.9,0-5.5-3.5-5.5-8.4C33.6,93,34.2,89.5,39.2,89.5z M39.2,104
			c1.9,0,2.2-1.7,2.2-6c0-4.3-0.3-6-2.2-6c-1.9,0-2.2,1.7-2.2,6C36.9,102.3,37.2,104,39.2,104z"/>
		<path d="M46.6,89.9h6.1c2.7,0,4.3,1.4,4.3,4.2c0,2.2-0.9,3.6-2.7,4v0c2.2,0.3,2.6,1.5,2.6,5c0,1.7,0.1,2.6,0.7,2.9v0.1h-3.5
			c-0.3-0.5-0.4-1.1-0.4-1.7l-0.1-3.1c0-1.3-0.6-2-1.9-2h-1.8v6.9h-3.3L46.6,89.9L46.6,89.9z M49.9,97h1.4c1.6,0,2.5-0.7,2.5-2.4
			c0-1.5-0.8-2.2-2.3-2.2h-1.5L49.9,97L49.9,97z"/>
		<path d="M67.2,89.9l2.3,12h0.1l2.4-12h3.4l-3.7,16.2h-4.2l-3.7-16.2H67.2z"/>
		<path d="M76.5,106.1V89.9h3.3v13.6h5.8v2.7H76.5z"/>
		<path d="M90.2,89.9h4l4.3,16.2h-3.4l-0.8-3.4h-4.3l-0.8,3.4h-3.4L90.2,89.9z M90.7,100h3.2l-1.6-7.3h0L90.7,100z"/>
		<path d="M102.9,89.9h4l4.3,16.2h-3.4l-0.8-3.4h-4.3l-0.8,3.4h-3.4L102.9,89.9z M103.3,100h3.2l-1.6-7.3h0L103.3,100z"/>
		<path d="M116.1,89.9l4,11.1h0V89.9h3v16.2h-3.7l-4-11.4h0v11.4h-3V89.9H116.1z"/>
		<path d="M125.6,89.9h5.4c4.5,0,5.4,3.1,5.4,7.9c0,5.8-1.2,8.3-5.6,8.3h-5.2L125.6,89.9L125.6,89.9z M128.8,103.7h1.5
			c2.3,0,2.7-1.4,2.7-5.8c0-3.7-0.3-5.6-2.8-5.6h-1.4L128.8,103.7L128.8,103.7z"/>
		<path d="M147.5,89.9v2.7h-5.8v3.8h5.5V99h-5.5v4.4h6v2.7h-9.3V89.9L147.5,89.9L147.5,89.9z"/>
		<path d="M149.4,89.9h6.1c2.7,0,4.3,1.4,4.3,4.2c0,2.2-0.9,3.6-2.7,4v0c2.2,0.3,2.6,1.5,2.6,5c0,1.7,0.1,2.6,0.7,2.9v0.1h-3.5
			c-0.3-0.5-0.4-1.1-0.4-1.7l-0.1-3.1c0-1.3-0.6-2-1.9-2h-1.8v6.9h-3.3L149.4,89.9L149.4,89.9z M152.7,97h1.4c1.6,0,2.5-0.7,2.5-2.4
			c0-1.5-0.8-2.2-2.3-2.2h-1.5V97z"/>
		<path d="M171.1,89.9v2.7h-5.8v3.8h5.5V99h-5.5v4.4h6v2.7h-9.3V89.9L171.1,89.9L171.1,89.9z"/>
		<path d="M176.8,89.9l4,11.1h0V89.9h3v16.2h-3.7l-4-11.4h0v11.4h-3V89.9H176.8z"/>
		<path d="M189.2,102.5v3.5h-3v-3.5H189.2z"/>
		<path d="M198.6,89.9l2.3,12h0.1l2.4-12h3.4l-3.7,16.2h-4.2l-3.7-16.2H198.6z"/>
		<path d="M213.1,89.5c4.9,0,5.5,3.5,5.5,8.4s-0.6,8.4-5.5,8.4c-4.9,0-5.5-3.5-5.5-8.4S208.2,89.5,213.1,89.5z M213.1,104
			c1.9,0,2.2-1.7,2.2-6c0-4.3-0.3-6-2.2-6c-1.9,0-2.2,1.7-2.2,6C210.9,102.3,211.2,104,213.1,104z"/>
		<path d="M225.8,89.5c4.9,0,5.5,3.5,5.5,8.4s-0.6,8.4-5.5,8.4c-4.9,0-5.5-3.5-5.5-8.4S220.9,89.5,225.8,89.5z M225.8,104
			c1.9,0,2.2-1.7,2.2-6c0-4.3-0.3-6-2.2-6c-1.9,0-2.2,1.7-2.2,6C223.5,102.3,223.8,104,225.8,104z"/>
		<path d="M233.2,89.9h6.1c2.7,0,4.3,1.4,4.3,4.2c0,2.2-0.9,3.6-2.7,4v0c2.2,0.3,2.6,1.5,2.6,5c0,1.7,0.1,2.6,0.7,2.9v0.1h-3.5
			c-0.3-0.5-0.4-1.1-0.4-1.7l-0.1-3.1c0-1.3-0.6-2-1.9-2h-1.8v6.9h-3.3L233.2,89.9L233.2,89.9z M236.5,97h1.4c1.6,0,2.5-0.7,2.5-2.4
			c0-1.5-0.8-2.2-2.3-2.2h-1.5V97z"/>
		<path d="M250.4,89.9h3.1l1.8,12h0l1.9-12h3.1l1.9,12h0l1.8-12h3.1l-3,16.2h-3.7l-1.8-11.8h0l-1.8,11.8h-3.7L250.4,89.9z"/>
		<path d="M277.7,89.9v2.7h-5.8v3.8h5.5V99h-5.5v4.4h6v2.7h-9.3V89.9L277.7,89.9L277.7,89.9z"/>
		<path d="M279.6,106.1V89.9h3.3v13.6h5.8v2.7H279.6z"/>
		<path d="M290.9,89.9l2.3,12h0.1l2.4-12h3.4l-3.7,16.2h-4.2l-3.7-16.2H290.9z"/>
		<path d="M302.5,89.9h4l4.3,16.2h-3.4l-0.8-3.4h-4.3l-0.8,3.4h-3.4L302.5,89.9z M303,100h3.2l-1.6-7.3h0L303,100z"/>
		<path d="M315.2,89.9h4l4.3,16.2h-3.4l-0.8-3.4h-4.3l-0.8,3.4h-3.4L315.2,89.9z M315.6,100h3.2l-1.6-7.3h0L315.6,100z"/>
		<path d="M324.7,89.9h6.1c2.7,0,4.3,1.4,4.3,4.2c0,2.2-0.9,3.6-2.7,4v0c2.2,0.3,2.6,1.5,2.6,5c0,1.7,0.1,2.6,0.7,2.9v0.1h-3.5
			c-0.3-0.5-0.4-1.1-0.4-1.7l-0.1-3.1c0-1.3-0.6-2-1.9-2H328v6.9h-3.3L324.7,89.9L324.7,89.9z M328,97h1.4c1.6,0,2.5-0.7,2.5-2.4
			c0-1.5-0.8-2.2-2.3-2.2H328V97z"/>
		<path d="M346.4,89.9v2.7h-3.5v13.6h-3.3V92.5h-3.5v-2.7H346.4z"/>
	</g>
</g>
</svg>
