<?xml version="1.0" encoding="utf-8"?>
<!-- Generator: Adobe Illustrator 26.0.1, SVG Export Plug-In . SVG Version: 6.00 Build 0)  -->
<svg version="1.1" id="Layer_1" xmlns="http://www.w3.org/2000/svg" xmlns:xlink="http://www.w3.org/1999/xlink" x="0px" y="0px"
	 viewBox="0 0 1000 355" style="enable-background:new 0 0 1000 355;" xml:space="preserve">
<style type="text/css">
	.st0{fill:#EF4135;}
	.st1{fill:#FFFFFF;}
</style>
<g>
	<path class="st0" d="M6.3,173.3c2.5,6.4,3.9,12.8,2.8,19.8c-0.3,1.9,0.2,4.6,1.2,6.2c4.4,7,5.7,14.8,5.2,22.6
		c-0.5,7.9,4.2,14.9,2.3,23.1c-0.8,3.5,5.1,7.7,8.9,7.6c3-0.1,6.1-0.3,9.1-0.1c0.5,0,1,1.6,1.6,2.5c-2.1,5.1-7.2,2.9-10.6,4.9
		c-0.8,0.5-1.3,1.5-2.2,2.6c0.3,1.8,0.7,4,1.1,6.4c6.2,0.8,11.7,0,17.2-1.6c1.9-0.6,4-1,6-1c1.9,0,4.2,0.3,3.6,3.8
		c-8.2,3.1-19-2.2-25.7,8.7c1.8,2.2,3.6,4.2,5.1,6.3c1.5,2.1,2.9,4.4,4.4,6.7c9-1.1,17.6-2.1,26-3.1c1.6,5.5,2.9,10.1,4.3,15
		c12.1,0.5,23.3,3.1,34.5-1.4c4-1.6,9.3,0.3,13.8-0.4c5.7-0.8,5.9,5,8.8,7.7c1.5,0.1,3,0.3,4.6,0.2c24.7-1.5,49.5-3.2,74.2-4.5
		c9.2-0.5,18.4,0.1,27.5-1.9c4-0.9,8.2-0.5,12.4-0.2c1.2,0.1,2.4,1.6,4.1,2.8c-2.1,0.7-3.5,1.4-4.9,1.5c-7.2,0.6-14.4,0.9-21.5,1.7
		c-3.4,0.4-4.1,2.6-1.9,5.9c4.9-1,9.8-2.6,14.8-2.8c5.5-0.2,11.2-0.7,16.7,2c1.4,0.7,3.9-0.5,5.6-1.4c2.2-1.2,4.2-3,6.1-4.4
		c-0.1-0.8-0.2-1.4-0.2-1.9c0.2-1.5-0.1-3.8,0.7-4.3c1-0.7,3.4-0.5,4.2,0.4c7.1,8.7,15.1,11.4,24.8,6.4c2-1,5-0.4,7.5,0
		c3.1,0.6,6,2.2,9,2.7s6.5,1,9.1-0.1s4.3-4.3,6.8-7.1c9.4,2,18.7,0.8,27.4-4.4c-1-1.8-1.8-3.4-2.8-5.1c4.3-0.8,8-1.2,10.1,3.2
		c2.1,4.3,5.2,5.1,9.2,4.3c4-0.8,8-1.2,12.1-1.6c7.2-0.6,14.5-2.4,21.5-1.3c7.8,1.1,15.2-0.5,22.9,0.2c2.9,0.3,6.9-0.1,8.7-2
		c4.4-4.7,8.8-3.8,14.1-2.6c4.5,1,9.2,1.1,13.8,0.8c6.6-0.5,13,0,19.4,2c-5.6,6.7-13.4,6.3-20.9,7c-11.7,1-23.6,0.5-35.2,3.3
		c-7.4,1.8-15.4,1.7-23.1,2.3c-10.3,0.9-20.6,1.6-30.8,2.5c-3.1,0.2-6.2,0.6-9.2,0.8c-16.4,1.1-32.9,2-49.3,3.3
		c-8.7,0.7-17.3,2.4-26.2,2c-5.6-0.2-11.4,0.5-16.9,2c-10,2.7-20.1,3.5-30.5,2.9c-2-0.1-4.3-0.3-5.9,0.6c-5.4,2.9-11.1,2.3-16.6,1.2
		c-5.9-1.2-11.1-0.2-16.7,1.2c-5.3,1.3-11.1,0.2-16.7,0.2c-1,0-2.1,0.4-2.9,0.9c-5.5,3.1-11.3,5-17.5,5.8c-0.7,0.1-1.3,1.4-2.2,2.5
		c1.6,0.5,3.1,1.4,4.5,1.3c18.5-0.7,36.9-1.5,55.3-2.3c4.9-3.2,10.4,1.7,15.2-0.3c11.2-4.7,23.6-0.1,34.9-5
		c4.4-1.9,10.6,1.2,15.3-0.3c13.1-4.2,26.9,0.8,39.9-3.6c1.3-0.4,3.1,0.1,4.5,0.8c6.5,3.2,12.9,2.9,19.7,1.4
		c4.9-1.1,10.1-0.5,14.9-0.6c0.5,1.5,0.9,2.2,0.8,2.5c-0.7,1.3-1.7,2.5-2.4,3.8c-1.7,3.1-0.4,7.2,2.5,7.9c1,0.2,2.1,0.7,3.1,0.6
		c17.4-1.1,35-0.7,51.6-7.4c6.1-2.5,12.7-4.8,19.1,1c1.4,1.2,4.1,1.1,6,0.9c14.8-1.7,30-1.1,44.1-7.2c1.9-0.8,4.2-2.4,5.8-1.8
		c8.3,3.2,16.4-0.4,24.5,0.3c12.6,1,24.6-1.4,36.5-4.9c7.3-2.2,14.8-3.7,22.8-3.4c9.2,0.3,18.5-1.2,27.7-2.3
		c2.8-0.3,5.3-2.2,10.7-4.7c-6.4-1.6-9.9-2.1-13.2-3.3c-1.2-0.4-2.8-2.3-2.7-3.4c0.1-1.3,1.6-2.6,2.8-3.4c1.3-0.8,2.9-1.4,4.4-1.3
		c5.2,0.4,10.4,1.8,15.4,1.4c5.5-0.5,10.9-2.9,16.4-3.9c3.5-0.6,7.2,0.1,10.8-0.1c3-0.2,6.5-0.2,8.9-1.8c5.3-3.3,10.5-3.5,16.4-2.4
		c5.7,1.1,11,0.8,16.4-2.5c3.8-2.4,8.8-3.4,13.3-3.5c12.9-0.2,25.4-4.7,38.5-2.1c1.4,0.3,3-0.6,4.5-0.8c11.3-1.3,22.5-2.7,33.8-4
		c9.2-1,18.5-1.5,27.7-3.1c7.1-1.2,13.9-3.2,21.2-2.8c2,0.1,4-0.7,6-1.2c2.6-0.7,2.6-3.1-0.1-6.3c-0.6-0.7-1.2-1.5-1.9-2.2
		c14.1-3.1,14.1-3.1,34.2,1.2c0.9,0.2,1.9,0,2.8-0.2c12.6-2.9,25.4-3.2,38.3-2.2c7.7,0.6,15.3,1.2,24.2,1.8c-5.1-2.6-9.1-4.7-13-6.7
		c0.1-1.2-0.1-2,0.2-2.2c1.1-1,2.2-2.3,3.5-2.7c4.2-1.2,9.4,2.4,12.9-2.4c0.3-6.1-5.3-11.7-1.2-18.1c3.4-0.6,6.8-1.3,10.5-2
		c-0.9-1.3-1.3-2.3-2-2.9c-0.8-0.6-2-0.7-2.9-1.3c-3.7-2.8-3.3-7,0.4-9.2c3.4-2,6.8-1.3,10.5-1.2c3.4,0.1,8,0,10-2.2
		c2.5-2.9,4.8-3.4,7.9-3.3c6.1,0.2,12.3,0.4,18.6,0.6c5.2-4,7.8-9.4,6.5-17c-1.2-6.8-1.1-13.5,2.4-19.5c2-3.5,1.7-7.3,0.8-11.4
		c-1.7-8.2-3.5-16.5-3.8-24.8c-0.2-8.9,1.7-17.8,2-26.7c0.2-6.7-0.6-13.5-1-20.2c-0.2-2.8-1.1-5.7-0.9-8.4c1-10.9-2.9-21.2-3.5-31.9
		c-0.3-5.5-3.2-9.4-8.6-10.9c-3.5-1-6.9-3-10.4-3.7c-14.3-2.9-28.7-5.4-43-8.1c-3.5-0.7-7-1.6-10.3-2.4c-1.6-4.3-2.8-8.1-4.3-11.7
		c-2.2-5.1-5.9-7.6-11.1-8.2c-7.7-0.8-15.4-2.2-23.1-3.3c-14.3-2.6-28.7-5.4-43.2-3c-2.5,0.4-5.2,0.3-7.7,0
		c-11.7-1.7-23.4-3.9-35.2-1.1c-1.9,0.4-4.1-0.4-6.2-0.4c-5.2,0-10.3,0-15.5,0.2c-15.5,0.6-30.9,2.3-46.4,1.6
		c-13-0.6-26-0.5-38.5,2.4c-10.3,2.4-22.1-3-31,6c-0.2,0.2-1-0.2-1.5-0.2c-11.2,0.1-22.3,1.9-33.5,2.8c-7.1,0.6-14.3,1.1-21.5,0.9
		c-7-0.2-14.3,0-21.1-0.9c-9.4-1.3-18.6-1.1-27.8-0.4c-8.7,0.7-17.5,2.8-26.2,2.3c-9.3-0.6-18.1,2.2-27.5,1
		c-8.6-1.1-17.5,0.4-26.3,0.8c-11.9,0.7-23.8,1-35.6,2.4c-6.6,0.7-13,1.7-19.7,1.6c-20.5-0.3-41,1.1-59.8,7.9
		c-5.7-1.1-11.2-3.8-15.8-2.7c-6.7,1.6-13.1,2.4-19.8,1.3c-12.8,5.8-27.2,2.1-40.3,6.6c-4,1.4-9.8,1.1-13.4-1.1
		c-8.4-5.2-16.3-3-24-0.8c-4.5,1.3-8.7,2-13.4,2c-19.5,0.2-39.2-1.9-58,5.5c-1.8,0.7-4,0.1-6.1,0c-2.6-0.1-5.1-0.7-7.7-0.5
		c-7.7,0.6-15.7,0.2-22.9,2.4c-7.7,2.4-16.6-2-23.2,4.9c-0.5,0.5-2.5,0.3-2.9-0.3c-3.4-5.6-8.3-4.3-12.7-3.4
		c-5,1.1-9.6,3.8-14.6,4.8c-5.4,1-11.2,0.3-16.7,1.2c-8.6,1.4-17.2,3.3-25.7,5.3c-8.4,2-17.1,3.5-24.4,10.4c1.1,6.6,2.1,13.1,3.1,19
		c2.9,1.1,4.8,1.9,6.5,2.6c0.3,3.2,0.3,6,0.9,8.7c0.6,3.2,5.5,4,4.2,8.7c-8.6,4-17.4,8-25.6,11.8c-0.9,4.1-1,7.8-2.5,10.4
		c-3.4,6.1,1.3,13.5-2.3,19.4C4,154.2,2.8,164.3,6.3,173.3z M737.9,268.5c12.5,1.9,24.5-1.8,36.8-2.3c13.3-0.4,26.7-1.5,40-2
		c2.9-0.1,6.4-0.3,7.7,5.1c-2.5,0.2-4.9,0.6-7.3,0.6c-13.4-0.2-26.6,2.3-40.1,0c-2.8-0.5-6.1,0.8-8.8,2.1
		c-7.2,3.8-14.4,5.3-22.1,0.8c-1.3-0.7-3.1-0.2-4.6-0.5c-1.3-0.3-2.6-1-4.3-1.6C736.4,269.7,737.2,268.4,737.9,268.5z M675.4,281.9
		c0,0,0-0.1-0.1-0.1c0.8-0.2,1.7-0.4,2.5-0.6C677,281.5,676.2,281.7,675.4,281.9z M672.2,275.3c3.3,0.9,2.2,4.2,3.1,6.4
		C674,279.7,670.9,278.8,672.2,275.3z M663.1,280.2c0.5,0.7,1.1,1.3,1.5,2c0.1,0.2-0.5,1.1-0.7,1c-0.8-0.2-1.5-0.7-2.2-1
		C662.1,281.6,662.6,280.9,663.1,280.2z M641.6,282.8c0.3,0,0.7,0.6,1,0.9c-0.4,0.3-0.7,0.8-1.1,0.8c-0.3,0-0.6-0.6-1-0.9
		C640.9,283.4,641.3,282.8,641.6,282.8z M629.1,280.9c0.2,0.5,0.6,0.9,0.9,1.3c-0.3-0.5-0.8-0.9-1-1.4c-0.3-0.9-0.5-1.9-0.8-2.9h0.1
		C628.6,278.9,628.7,279.9,629.1,280.9z M620.9,278c2.3-0.2,4.7-0.1,7.1-0.1c-1.8,3-3.5,5.9-5.2,8.6c-5.5-0.1-3.1-4.6-5-6.5
		C619.4,278.9,620.1,278,620.9,278z M420.3,312.9c0.4,0.1,0.9,0.2,1.3,0.3c0,0.4-0.1,0.9-0.1,1.3c-0.4-0.1-1,0-1.2-0.3
		C420,314,420.2,313.4,420.3,312.9z M477.3,325.1c-2.9,0.7-6.1-0.2-9.2-0.3c-10.3-0.5-20.5-1.6-30.1,3.5c-1.3,0.7-3,0.9-4.5,1
		c-20.6,1.1-41.1,2.1-61.7,3c-0.8,0-1.7-0.9-2.6-1.4c0.3-0.9,0.5-2.6,0.9-2.6c6.8,0,13-2.5,19.4-4.2c8.2-2.1,16.4-5.7,25.2-1.8
		c11.8-0.7,23.6-1.4,35.5-2.2c11.2-0.8,22.4-1.6,33.6-2.4c0.4,1,0.7,2.1,1.1,3.1C482.3,322.3,480,324.5,477.3,325.1z M598.4,285.2
		c1.2-0.4,2.8,0.3,4.1,0.8c0.6,0.2,0.9,1.2,1.6,2.2c-2.1,0.6-3.9,1.3-5.7,1.5c-0.7,0.1-1.6-1-2.4-1.5
		C596.8,287.2,597.4,285.5,598.4,285.2z M567.3,289.4c0.4,0.7,0.8,1.4,1.3,2.1c-0.8,0.5-1.7,1.3-2.5,1.3c-0.4,0-0.9-1.5-1.3-2.3
		C565.6,290.2,566.5,289.8,567.3,289.4z M536.2,293c6.4-1,12.9-1.9,19.4-2.8c0.3,0,1,0.6,1,0.9c0,1-0.2,2.7-0.5,2.8
		c-4,0.6-8,1.2-12.1,1.3c-2.8,0.1-5.8,2.2-8.4-0.8C535.8,293.9,535.9,293.1,536.2,293z M560.3,310.4c1,0.1,2.5,0.2,2.9-0.4
		c7.9-10.3,18.3-1.2,27.2-3c0.4-0.1,1.3,2.5,2.3,4.5c-7.9,2.3-15.4,3.1-23,3.9c-18.8,2-37.9,1.2-56.5,5.7
		c-5.4,1.3-11.1,0.9-16.7,0.9c-1.3,0-2.9-1.2-4-2.3c-0.4-0.4-0.4-2.4,0.1-2.8c3.6-2.5,9.5-0.3,11.6-6.1c3.5,0.6,7.3,0.5,10.5,2
		c4.7,2.2,9,1.5,13.6,1.1C539,313.2,549.4,309.7,560.3,310.4z M502.4,290.4c7.6,1.7,15.3,3.4,25.7,5.8c-11.1,1.6-19.5,2.8-27.9,4.1
		c-4.7,0.7-8.7-0.7-12.3-4.1C495.3,295.5,495.7,295.3,502.4,290.4z M491,291.3l1,0.4l-0.9,0.5L491,291.3z M486.7,295.9
		c-2.1,0.5-4.3,1.1-6.4,1.6c0.6-4.4,1.1-4.7,4.2-3.1C485.2,294.8,485.9,295.3,486.7,295.9z M481.9,285.2c-3.8,3.2-7.4,3.1-12.3,1.1
		C473.8,282.8,477.4,282.8,481.9,285.2z M441.3,286.4c2-0.1,4,0.1,5.9,0.4c0.4,0,0.7,0.7,1.1,1.1c-10.5,4.2-10.5,4.2-20.1-0.2
		C433.6,287.1,437.5,286.6,441.3,286.4z M404.5,289.5c2.9-0.1,5.9,0,8.9,0.8c-5.7,2.6-11.5,3.3-17.5-0.2
		C398.7,289.9,401.6,289.6,404.5,289.5z M362.9,293.8c0.3,0.3,0.8,0.5,1,0.9c0.1,0.4-0.2,0.8-0.3,1.3c-0.4,0-0.7,0-1.1,0
		C362.6,295.2,362.8,294.5,362.9,293.8z M325.1,296c0.3,0,0.5,0.7,0.8,1.1c-0.8,0.5-1.5,1-2.3,1.4c-0.4-0.7-0.8-1.4-1.2-2.1
		C323.3,296.2,324.2,296,325.1,296z M309.6,308l0.1,1l-0.9-0.4L309.6,308z M277.1,299.9c0.5,0,0.9,1.3,1.4,2
		c-0.7,0.5-1.5,1.4-2.2,1.3c-0.5,0-0.9-1.4-1.4-2.2C275.6,300.6,276.4,299.9,277.1,299.9z"/>
	<path class="st0" d="M312.9,338.3c-11.6,1.3-22.9,5.2-35,2.4c-2.3-0.5-5,1-7.5,1.5c-4.5,0.9-8.9,2.4-13.5,2.6
		c-4.4,0.2-8.9-0.8-14.3-1.3c1.3,2.1,1.8,3.7,2.9,4.3c8.7,5.3,18.3-1.5,27.2,3.2c1.6,0.8,4,0,6-0.4c1.5-0.3,2.9-1,4.2-1.8
		c5.1-3.2,10.7-3,16.4-2.5c5.1,0.4,10.3,0.8,15.2,0.2c3.7-0.4,4.5-3.7,2.5-7.9C315.8,338.5,314.3,338.2,312.9,338.3z"/>
	<path class="st0" d="M111.7,318.7c0,0.3,0.1,0.7,0.1,1c11.7-0.2,23.4-0.3,35.2-0.6c3.1-0.1,6.1-0.2,9.1-0.7
		c0.7-0.1,1.2-1.9,2.7-4.5C141.9,315.6,126.8,317.1,111.7,318.7z"/>
	<path class="st0" d="M667.7,305.3c-2.2,0.3-3.7,1.6-1.7,4.3c4.5-0.6,9-1.1,13.5-1.9c4.6-0.8,10.2,1.7,14.4-4.1
		c-2.7-0.4-4.7-1-6.6-0.9C680.7,303.5,674.2,304.3,667.7,305.3z"/>
	<path class="st0" d="M176.2,353.3c6.4,2.8,12,2.4,18.9-2.9C182.8,347.1,182.8,347.1,176.2,353.3z"/>
	<path class="st0" d="M206.1,313c-11.9-2.2-20.8-0.7-29.6,1.7C185.6,315.7,194.6,315.8,206.1,313z"/>
	<path class="st0" d="M772.7,295.2c6-0.4,12-0.9,18-1.3c0-0.1,0-0.2,0-0.3c-6,0.4-12,0.9-18,1.3C772.7,295,772.7,295.1,772.7,295.2z
		"/>
	<path class="st0" d="M349.1,335.6c-2-0.1-4.1,0.1-6,0.7c-0.6,0.2-0.9,1.8-1.3,2.7c0.2,0.5,0.4,1.2,0.7,1.4c2.4,1.4,4.9,2.3,7.2,0.3
		c0.7-0.6,1.2-2,1.1-2.9C350.7,337.1,349.7,335.7,349.1,335.6z"/>
	<path class="st0" d="M135,334.9c-6.1,1.3-11.2,2.4-16.4,3.5C131.3,339.2,131.3,339.2,135,334.9z"/>
	<path class="st0" d="M219.2,346.9c-2.1-0.6-5.6,1.3-6.2,3.1c0.6,0.9,1.2,2.5,1.7,2.4c1.8-0.2,3.7-0.7,5.4-1.5
		c0.4-0.2,0.3-1.9,0.2-3C220.2,347.6,219.6,347,219.2,346.9z"/>
	<path class="st0" d="M624,310.1c5.7,0.7,8.8,3.4,11-0.5C632.3,307.1,629.5,308,624,310.1z"/>
	<path class="st0" d="M749.6,298.8c1.6-0.6,4.1,0.2,4.4-2.8c-5.8,0.8-5.8,0.8-9.9,4.6C745.9,300.1,747.8,299.5,749.6,298.8z"/>
	<path class="st0" d="M105.3,310.4c2.7-0.5,5.9,2.3,8.2-1.4C109,307.6,109,307.6,105.3,310.4z"/>
	<path class="st0" d="M89.6,321.2c0.2,0,0.3-0.1,0.4-0.1C89.8,321.1,89.7,321.1,89.6,321.2L89.6,321.2z"/>
	<path class="st0" d="M89.6,321.2L89.6,321.2C91.2,320.8,90.4,321,89.6,321.2z"/>
	<path class="st0" d="M89.9,321.1C90.5,321,90.7,320.9,89.9,321.1L89.9,321.1z"/>
	<path class="st0" d="M646.8,308c-0.2,0.4,0,1.1,0,1.6c0.3,0.4,0.8,1.1,1,1c1.9-0.5,3.8-1.1,5.6-1.9c0.2-0.1,0.2-0.9,0.3-1.4
		c-1.9-0.1-3.9-0.3-5.8-0.3C647.5,307.1,647,307.6,646.8,308z"/>
	<path class="st0" d="M147.8,332.3c-2.2,1.1-4.5,2.2-4.8,5.4c5.3,0.5,6.1,0.1,6.4-3.4C149.4,333.7,148,332.2,147.8,332.3z"/>
	<path class="st0" d="M716,299.6c-0.8,0.4-1.4,0.5-1.6,0.9c-0.3,0.9-0.9,2.3-0.5,2.8c1.4,2,3.5,2.1,5.2,0.8c0.5-0.4,0.8-2.4,0.5-2.6
		C718.5,300.6,717.1,300.1,716,299.6z"/>
	<path class="st0" d="M426.8,336.5c0.7,0.4,1.4,0.8,2.1,1c0.2,0.1,0.6-0.5,0.9-0.8c-0.7-0.4-1.4-0.8-2.1-1.2
		C427.4,335.8,427.1,336.1,426.8,336.5z"/>
	<path class="st0" d="M329.5,339c-0.7,0.1-1.2,1.2-1.8,1.8c0.7,0.6,1.4,1.6,1.9,1.5c0.7-0.1,1.2-1.2,1.7-1.8
		C330.8,340,330,338.9,329.5,339z"/>
	<path class="st0" d="M735.3,301.3c3.5-0.3,6.1-0.4,8.8-0.6l0,0l0,0l0,0C741.4,300.7,738.7,297.8,735.3,301.3z"/>
	<path class="st0" d="M166.3,328.6c-0.4-0.1-1-0.4-1.3-0.2c-0.7,0.4-1.2,0.9-1.9,1.5c0.8,0.3,1.6,0.9,2.3,0.8
		C165.8,330.6,166,329.3,166.3,328.6z"/>
	<polygon class="st0" points="162.1,353.4 163.5,353.3 162.7,352.3 	"/>
</g>
<g>
	<g>
		<path class="st1" d="M392.9,101.1c-20.1-27.6-58.7-33.7-86.3-13.7c-2.7,2-9.3,6.8-18,13.1c11,5.4,22.9,13.5,34.3,23.4l45-30
			c-0.9,5-8.1,27.9-20.4,55.2c8.4,10.2,15.5,21.1,20.4,31.8h-36.3c-12.2,22-27.2,43.5-44.3,58.7c5.6-19.2,8.2-39.3,7.8-58.7H193.5
			l96.2-38.9c-8.7-31.7-27.8-56.7-58-64.3c-24-6.4-50.5,2.1-65.9,23.4c-20.1,27.6-13.9,66.2,13.7,86.3c6.9,5,99.9,72.6,99.9,72.6
			s93.1-67.6,99.9-72.6C406.8,167.3,413,128.7,392.9,101.1z"/>
		<g>
			<polygon class="st1" points="602.4,142.5 587.8,103.6 558.6,103.6 593.3,181 611.3,181 645.5,103.6 617,103.6 			"/>
			<path class="st1" d="M549.7,142.4c0,24.1-16.9,41.3-40.6,41.3c-7,0-13.4-1.8-18.9-5.1v30.5h-26.4V103.7H482l3.3,6.2
				c6.4-5.5,14.6-8.7,23.8-8.7C532.8,101.1,549.7,118.3,549.7,142.4z M522.9,142.4c0-10.2-7.3-17.7-17.3-17.7s-17.3,7.5-17.3,17.7
				s7.3,17.7,17.3,17.7C515.5,160.1,522.9,152.6,522.9,142.4z"/>
			<path class="st1" d="M740.6,75.7v105.4h-19.7l-2.5-5.8c-6.3,5.3-14.3,8.4-23.4,8.4c-23.8,0-40.7-17.3-40.7-41.3
				c0-24.1,16.9-41.3,40.7-41.3c7.1,0,13.7,1.9,19.2,5.4V75.7H740.6z M715.9,142.4c0-10.1-7.3-17.7-17.3-17.7s-17.3,7.6-17.3,17.7
				c0,10.1,7.3,17.7,17.3,17.7S715.9,152.5,715.9,142.4z"/>
			<path class="st1" d="M846.1,103.6V181h-20.6l-2.3-5.5c-6.3,5.1-14.4,8.1-23.4,8.1c-23.7,0-40.6-17.3-40.6-41.3
				s16.9-41.1,40.6-41.1c9.1,0,17.3,3,23.7,8.3l2.7-6L846.1,103.6z M820.7,142.4c0-10.1-7.3-17.6-17.3-17.6
				c-10.1,0-17.3,7.5-17.3,17.6s7.3,17.7,17.3,17.7S820.7,152.5,820.7,142.4z"/>
		</g>
	</g>
</g>
</svg>
