<?xml version="1.0" encoding="UTF-8" standalone="no"?>
<!-- Created with Inkscape (http://www.inkscape.org/) -->

<svg
   xmlns:dc="http://purl.org/dc/elements/1.1/"
   xmlns:cc="http://creativecommons.org/ns#"
   xmlns:rdf="http://www.w3.org/1999/02/22-rdf-syntax-ns#"
   xmlns:svg="http://www.w3.org/2000/svg"
   xmlns="http://www.w3.org/2000/svg"
   version="1.1"
   width="267.37057"
   height="235.46072"
   id="svg3173">
  <defs
     id="defs3175">
    <clipPath
       id="clipPath3071">
      <path
         d="m 250.214,164.409 87.762,0 0,79.453 -87.762,0 0,-79.453 z"
         id="path3073" />
    </clipPath>
    <clipPath
       id="clipPath3055">
      <path
         d="m 250.214,164.409 87.762,0 0,79.453 -87.762,0 0,-79.453 z"
         id="path3057" />
    </clipPath>
  </defs>
  <metadata
     id="metadata3178">
    <rdf:RDF>
      <cc:Work
         rdf:about="">
        <dc:format>image/svg+xml</dc:format>
        <dc:type
           rdf:resource="http://purl.org/dc/dcmitype/StillImage" />
        <dc:title></dc:title>
      </cc:Work>
    </rdf:RDF>
  </metadata>
  <g
     transform="translate(-70.957581,-26.060405)"
     id="layer1">
    <g
       transform="matrix(2.25,0,0,2.25,3784.2858,868.11871)"
       id="g3358">
      <g
         transform="matrix(1.25,0,0,-1.25,-1541.2506,-321.92272)"
         id="g3047">
        <path
           d="m 0,0 0,39.067 -79.038,0 0,-39.067 18.934,0 0,20.436 41.472,0 L -18.632,0 0,0 z"
           id="path3049"
           style="fill:#ffdd00;fill-opacity:1;fill-rule:nonzero;stroke:none" />
      </g>
      <g
         transform="matrix(1.25,0,0,-1.25,-1962.895,-66.754219)"
         id="g3051">
        <g
           clip-path="url(#clipPath3055)"
           id="g3053">
          <g
             transform="translate(337.3155,204.1348)"
             id="g3059">
            <path
               d="m 0,0 0,39.067 -79.038,0 0,-39.067 18.934,0 0,20.436 41.472,0 L -18.632,0 0,0 z"
               id="path3061"
               style="fill:none;stroke:#ffffff;stroke-width:1.32000005;stroke-linecap:butt;stroke-linejoin:miter;stroke-miterlimit:4;stroke-opacity:1;stroke-dasharray:none" />
          </g>
        </g>
      </g>
      <g
         transform="matrix(1.25,0,0,-1.25,-1541.2506,-321.92434)"
         id="g3063">
        <path
           d="m 0,0 0,-39.067 -79.038,0 0,39.067 18.934,0 0,-20.436 41.472,0 0,20.436 L 0,0 z"
           id="path3065"
           style="fill:#000000;fill-opacity:1;fill-rule:nonzero;stroke:none" />
      </g>
      <g
         transform="matrix(1.25,0,0,-1.25,-1962.895,-66.754219)"
         id="g3067">
        <g
           clip-path="url(#clipPath3071)"
           id="g3069">
          <g
             transform="translate(337.3155,204.1361)"
             id="g3075">
            <path
               d="m 0,0 0,-39.067 -79.038,0 0,39.067 18.934,0 0,-20.436 41.472,0 0,20.436 L 0,0 z"
               id="path3077"
               style="fill:none;stroke:#ffffff;stroke-width:1.32000005;stroke-linecap:butt;stroke-linejoin:miter;stroke-miterlimit:4;stroke-opacity:1;stroke-dasharray:none" />
          </g>
          <g
             transform="translate(294.6753,208.6043)"
             id="g3079">
            <path
               d="m 0,0 5.185,0 c 0,0 -2.245,-4.916 -9.333,-0.854 l -5.553,-5.559 c 0,0 1.889,-1.389 5.907,-1.603 0,0 -3.247,-3.681 -13.66,-1.71 l 0,-15.174 32.74,0 c -0.348,1.047 -0.616,2.437 -0.767,4.269 0,0 4.641,-6.903 9.485,-2.094 0,0 3.628,4.61 1.503,11.182 0,0 -2.948,-8.092 -5.907,-2.566 0,0 -2.835,12.722 9.57,25.871 l -4.135,-1.497 5.907,5.131 c 0,0 -6.852,-3.206 -12.405,-1.817 0,0 -7.089,1.282 -10.516,1.282 0,0 -4.607,-0.213 -5.552,-3.42 0,0 -3.191,0.962 -8.39,-1.924 l 1.064,-6.308 c 0,0 6.143,3.314 8.861,3.635 0,0 4.845,0.963 3.663,-1.924 L 6.25,1.926 l -6.25,0 -1.076,0 -2.782,0.107 c -2.748,0.193 -3.605,0.618 -5.979,2.088 -7.298,4.51 -8.807,5.381 -8.807,5.381 -12.944,6.304 -23.572,-4.456 -23.572,-4.456 0,0 11.567,3.338 22.901,-1.378 0,0 4.274,-2.134 8.652,-3.265 2.303,-0.595 4.913,-0.792 7.511,-0.491 L 0,0 z"
               id="path3081"
               style="fill:#878786;fill-opacity:1;fill-rule:nonzero;stroke:none" />
          </g>
          <g
             transform="translate(294.6753,208.6043)"
             id="g3083">
            <path
               d="m 0,0 5.185,0 c 0,0 -2.245,-4.916 -9.333,-0.854 l -5.553,-5.559 c 0,0 1.889,-1.389 5.907,-1.603 0,0 -3.247,-3.681 -13.66,-1.71 l 0,-15.174 32.74,0 c -0.348,1.047 -0.616,2.437 -0.767,4.269 0,0 4.641,-6.903 9.485,-2.094 0,0 3.628,4.61 1.503,11.182 0,0 -2.948,-8.092 -5.907,-2.566 0,0 -2.835,12.722 9.57,25.871 l -4.135,-1.497 5.907,5.131 c 0,0 -6.852,-3.206 -12.405,-1.817 0,0 -7.089,1.282 -10.516,1.282 0,0 -4.607,-0.213 -5.552,-3.42 0,0 -3.191,0.962 -8.39,-1.924 l 1.064,-6.308 c 0,0 6.143,3.314 8.861,3.635 0,0 4.845,0.963 3.663,-1.924 L 6.25,1.926 l -6.25,0 -1.076,0 -2.782,0.107 c -2.748,0.193 -3.605,0.618 -5.979,2.088 -7.298,4.51 -8.807,5.381 -8.807,5.381 -12.944,6.304 -23.572,-4.456 -23.572,-4.456 0,0 11.567,3.338 22.901,-1.378 0,0 4.274,-2.134 8.652,-3.265 2.303,-0.595 4.913,-0.792 7.511,-0.491 L 0,0 z"
               id="path3085"
               style="fill:none;stroke:#ffffff;stroke-width:1.32000005;stroke-linecap:butt;stroke-linejoin:miter;stroke-miterlimit:4;stroke-opacity:1;stroke-dasharray:none" />
          </g>
          <path
             d="m 319.165,182.956 -42.03,0 0,41.636 42.03,0 0,-41.636 z"
             id="path3087"
             style="fill:#ffffff;fill-opacity:1;fill-rule:nonzero;stroke:none" />
          <g
             transform="translate(337.3155,204.1348)"
             id="g3089">
            <path
               d="m 0,0 0,39.067 -79.038,0 0,-39.067 18.934,0 0,20.436 41.472,0 L -18.632,0 0,0 z"
               id="path3091"
               style="fill:#ffe500;fill-opacity:1;fill-rule:nonzero;stroke:none" />
          </g>
          <g
             transform="translate(337.3155,204.1361)"
             id="g3093">
            <path
               d="m 0,0 0,-39.067 -79.038,0 0,39.067 18.934,0 0,-20.436 41.472,0 0,20.436 L 0,0 z"
               id="path3095"
               style="fill:#000000;fill-opacity:1;fill-rule:nonzero;stroke:none" />
          </g>
          <g
             transform="translate(294.6753,208.6043)"
             id="g3097">
            <path
               d="m 0,0 5.185,0 c 0,0 -2.245,-4.916 -9.333,-0.854 l -5.553,-5.559 c 0,0 1.889,-1.389 5.907,-1.603 0,0 -3.247,-3.681 -13.66,-1.71 l 0,-15.174 32.74,0 c -0.348,1.047 -0.616,2.437 -0.767,4.269 0,0 4.641,-6.903 9.485,-2.094 0,0 3.628,4.61 1.503,11.182 0,0 -2.948,-8.092 -5.907,-2.566 0,0 -2.835,12.722 9.57,25.871 l -4.135,-1.497 5.907,5.131 c 0,0 -6.852,-3.206 -12.405,-1.817 0,0 -7.089,1.282 -10.516,1.282 0,0 -4.607,-0.213 -5.552,-3.42 0,0 -3.191,0.962 -8.39,-1.924 l 1.064,-6.308 c 0,0 6.143,3.314 8.861,3.635 0,0 4.845,0.963 3.663,-1.924 L 6.25,1.926 l -6.25,0 -1.076,0 -2.782,0.107 c -2.748,0.193 -3.605,0.618 -5.979,2.088 -7.298,4.51 -8.807,5.381 -8.807,5.381 -12.944,6.304 -23.572,-4.456 -23.572,-4.456 0,0 11.567,3.338 22.901,-1.378 0,0 4.274,-2.134 8.652,-3.265 2.303,-0.595 4.913,-0.792 7.511,-0.491 L 0,0 z"
               id="path3099"
               style="fill:#878786;fill-opacity:1;fill-rule:nonzero;stroke:none" />
          </g>
          <g
             transform="translate(267.237,170.5229)"
             id="g3101">
            <path
               d="m 0,0 c 1.15,0 1.81,0.496 1.81,1.394 0,0.839 -0.734,1.355 -2.055,1.355 L -0.245,0 0,0 z m 1.761,6.529 c 0,0.687 -0.636,1.108 -1.737,1.108 l -0.269,0 0,-2.348 c 1.346,0.038 2.006,0.419 2.006,1.24 m -6.752,4.01 5.431,0 c 3.939,0 5.921,-1.146 5.921,-3.418 C 6.361,5.479 5.26,4.487 3.009,4.085 5.529,3.666 6.727,2.596 6.727,0.764 6.727,-1.757 4.623,-3.074 0.44,-3.074 l -5.431,0 0,13.613 z"
               id="path3103"
               style="fill:#ffffff;fill-opacity:1;fill-rule:nonzero;stroke:none" />
          </g>
          <g
             transform="translate(275.1009,181.0883)"
             id="g3105">
            <path
               d="m 0,0 8.66,0 0,-3.309 -3.767,0 0,-1.741 3.4,0 0,-3.194 -3.4,0 0,-1.875 3.767,0 0,-3.519 -8.66,0 L 0,0 z"
               id="path3107"
               style="fill:#ffffff;fill-opacity:1;fill-rule:nonzero;stroke:none" />
          </g>
          <g
             transform="translate(285.0444,181.0883)"
             id="g3109">
            <path
               d="m 0,0 4.893,0 0,-10.253 3.572,0 0,-3.385 -8.465,0 L 0,0 z"
               id="path3111"
               style="fill:#ffffff;fill-opacity:1;fill-rule:nonzero;stroke:none" />
          </g>
          <g
             transform="translate(301.4113,172.2132)"
             id="g3113">
            <path
               d="M 0,0 -0.98,5.049 -1.934,0 0,0 z m -3.719,8.875 5.48,0 3.815,-13.638 -4.745,0 -0.367,2.008 -2.886,0 -0.368,-2.008 -4.745,0 3.816,13.638 z"
               id="path3115"
               style="fill:#ffffff;fill-opacity:1;fill-rule:nonzero;stroke:none" />
          </g>
          <g
             transform="translate(307.5833,181.0883)"
             id="g3117">
            <path
               d="m 0,0 4.844,0 2.691,-7.174 0,7.174 4.427,0 0,-13.638 -4.794,0 -2.716,6.829 0,-6.829 -4.452,0 L 0,0 z"
               id="path3119"
               style="fill:#ffffff;fill-opacity:1;fill-rule:nonzero;stroke:none" />
          </g>
          <g
             transform="translate(333.2565,174.1826)"
             id="g3121">
            <path
               d="m 0,0 c 0,-4.724 -1.932,-7.001 -6.116,-7.001 -4.084,0 -6.531,2.506 -6.531,7.078 0,4.59 2.422,7.097 6.63,7.097 3.032,0 4.844,-1.052 5.798,-3.328 L -4.452,2.717 c -0.367,0.918 -0.832,1.339 -1.639,1.339 -1.346,0 -1.639,-1.224 -1.639,-3.807 0,-2.582 0.293,-3.769 1.614,-3.769 0.905,0 1.346,0.594 1.346,1.78 l 0,0.191 -1.443,0 0,2.774 6.165,0 C -0.024,0.803 0,0.403 0,0"
               id="path3123"
               style="fill:#ffffff;fill-opacity:1;fill-rule:nonzero;stroke:none" />
          </g>
          <g
             transform="translate(265.0314,240.2511)"
             id="g3125">
            <path
               d="M 0,0 1.736,-8.858 3.495,0 8.138,0 4.316,-13.553 l -5.16,0 L -4.667,0 0,0 z"
               id="path3127"
               style="fill:#000000;fill-opacity:1;fill-rule:nonzero;stroke:none" />
          </g>
          <g
             transform="translate(274.2018,240.2511)"
             id="g3129">
            <path
               d="m 0,0 4.691,0 0,-10.188 3.424,0 0,-3.365 -8.115,0 L 0,0 z"
               id="path3131"
               style="fill:#000000;fill-opacity:1;fill-rule:nonzero;stroke:none" />
          </g>
          <g
             transform="translate(289.8929,231.4314)"
             id="g3133">
            <path
               d="M 0,0 -0.938,5.018 -1.853,0 0,0 z m -3.565,8.82 5.254,0 3.659,-13.553 -4.551,0 -0.352,1.996 -2.767,0 -0.352,-1.996 -4.55,0 3.659,13.553 z"
               id="path3135"
               style="fill:#000000;fill-opacity:1;fill-rule:nonzero;stroke:none" />
          </g>
          <g
             transform="translate(302.2067,231.4314)"
             id="g3137">
            <path
               d="M 0,0 -0.938,5.018 -1.854,0 0,0 z m -3.566,8.82 5.254,0 3.659,-13.553 -4.55,0 -0.352,1.996 -2.768,0 -0.351,-1.996 -4.55,0 3.658,13.553 z"
               id="path3139"
               style="fill:#000000;fill-opacity:1;fill-rule:nonzero;stroke:none" />
          </g>
          <g
             transform="translate(309.1483,240.2511)"
             id="g3141">
            <path
               d="M 0,0 5.559,0 7.013,-7.147 8.467,0 l 5.558,0 1.196,-13.553 -4.268,0 -0.352,9.599 -1.852,-9.599 -3.472,0 -1.853,9.599 -0.375,-9.599 -4.245,0 L 0,0 z"
               id="path3143"
               style="fill:#000000;fill-opacity:1;fill-rule:nonzero;stroke:none" />
          </g>
          <g
             transform="translate(328.7084,229.8916)"
             id="g3145">
            <path
               d="m 0,0 c 0.774,0 1.29,0.418 1.29,0.951 0,0.494 -0.516,0.874 -1.266,1.444 -1.97,1.483 -3.282,2.528 -3.282,4.296 0,2.262 2.086,3.935 5.135,3.935 1.173,0 2.439,-0.266 3.777,-0.779 l 0,-3.517 C 4.527,7.052 3.541,7.413 2.744,7.413 2.018,7.413 1.571,7.071 1.571,6.596 1.571,6.045 2.135,5.722 2.908,5.227 5.02,3.859 6.239,2.928 6.239,0.932 c 0,-2.643 -2.228,-4.392 -5.652,-4.392 -1.337,0 -2.58,0.343 -3.894,1.027 l 0,3.745 C -1.923,0.418 -0.797,0 0,0"
               id="path3147"
               style="fill:#000000;fill-opacity:1;fill-rule:nonzero;stroke:none" />
          </g>
        </g>
      </g>
    </g>
  </g>
</svg>
