<?xml version="1.0" encoding="utf-8"?>
<svg xmlns="http://www.w3.org/2000/svg" xml:space="preserve" viewBox="0 0 917.72 137.03">
  <path fill="#ff2900" d="M722.29 33.77h26.29l4.21-26.91-84.86 3.12-3.73 23.79h26.29l-14.91 94.27 30.1 1.13h1.52zm-98.01-22.19-17.97 113.84 31.61 1.2 18.34-116.21zm-29.5 64.05 10.01-63.33-31.98 1.17-9.02 57.77c-2.6 15.9-6.49 33.26-26.94 33.26-20.44 0-18.82-17.36-16.23-33.26l8.78-56.18-32 1.18-9.38 59.39c-2.43 15.74-4.22 31.32 6.01 43.16.76.89 1.59 1.7 2.44 2.49l71.23 2.69c2.63-1.49 5.13-3.21 7.45-5.18 14.11-11.84 17.19-27.42 19.63-43.16zM484.16 44.48c1.91-12.3-.75-21.36-6.62-27.5l-79.66 2.93-15.32 97.08 31.62 1.19 5.72-36.06h.33l17.71 36.95 39.19 1.48-25.26-41.52c17.85-3.07 29.53-17.68 32.29-34.55zm-33.43 1.94c-2.11 13.31-14.12 15.25-24.5 15.25h-3.08l4.87-30.5h3.08c10.39 0 21.74 1.95 19.63 15.25zm-70.06 19.31c2.87-18.16-2.53-33.64-12.91-44.72l-99.71 3.66c-11.67 10.72-20.14 24.83-22.7 41.06-2.98 18.63.77 34.68 9.66 46.44l97 3.66c14.85-11.99 25.36-29.45 28.66-50.1zm-33.1.16c-3.41 21.09-21.42 36.51-40.4 36.51-18.99 0-32.13-15.41-28.72-36.51 2.6-16.87 20.61-32.29 39.59-32.29 18.98 0 32.12 15.42 29.53 32.29zm-108.08-.16c2.46-15.55-1.16-29.14-8.77-39.69l-109.17 4.01c-8.9 9.89-15.23 22.03-17.38 35.68-2.54 15.9-.18 29.9 6.08 40.98l106.3 4.01c11.81-11.62 20.08-27.11 22.94-44.99zm-33.1.16c-3.41 21.09-21.42 36.51-40.4 36.51-18.99 0-32.13-15.41-28.72-36.51 2.6-16.87 20.61-32.29 39.59-32.29 18.98 0 32.12 15.42 29.53 32.29zm-94.81-35.47-34.61 1.27-27.53 49.46L37.9 33.12 4.26 34.36l18.13 69.03 45.5 1.72zm801.88 17.24L865.5 68.14l27.29-63.9h-17.35l-14.91 37.32L845.7 4.25h-17.35l20.48 47.96-63.9-27.29v17.35l37.32 14.91-37.32 14.83v17.35l47.96-20.48-27.29 63.9h17.35l14.91-37.32 14.83 37.32h17.35l-20.48-47.96 63.9 27.29V94.76l-37.32-14.91 37.32-14.83V47.66zm-72.23 17.66 11.16-4.76 4.76 11.16L846 76.47l-4.77-11.15z"/>
</svg>