<?xml version="1.0" encoding="UTF-8" standalone="no"?>
<svg xmlns:svg="http://www.w3.org/2000/svg"
     xmlns="http://www.w3.org/2000/svg" version="1.1"
     width="360.0" height="185.0">
   <g style="fill:#ffffff">
        <circle cx="13.14" cy="172.05" r="6.36"/>
        <circle cx="29.07" cy="172.05" r="6.36"/>
        <circle cx="45.01" cy="172.05" r="6.36"/>
        <circle cx="60.95" cy="172.05" r="6.36"/>
        <circle cx="76.90" cy="172.05" r="6.36"/>
        <circle cx="92.86" cy="172.05" r="6.36"/>
        <circle cx="14.99" cy="153.97" r="6.36"/>
        <circle cx="31.03" cy="154.51" r="6.36"/>
        <circle cx="47.21" cy="154.42" r="6.36"/>
        <circle cx="63.48" cy="154.30" r="6.36"/>
        <circle cx="79.63" cy="155.12" r="6.36"/>
        <circle cx="18.80" cy="136.21" r="6.36"/>
        <circle cx="35.01" cy="137.33" r="6.36"/>
        <circle cx="96.11" cy="155.12" r="6.36"/>
        <circle cx="51.71" cy="137.23" r="6.36"/>
        <circle cx="68.65" cy="137.13" r="6.36"/>
        <circle cx="24.50" cy="118.97" r="6.36"/>
        <circle cx="40.97" cy="120.73" r="6.36"/>
        <circle cx="85.12" cy="138.88" r="6.36"/>
        <circle cx="58.43" cy="120.78" r="6.36"/>
        <circle cx="32.05" cy="102.44" r="6.36"/>
        <circle cx="102.62" cy="139.16" r="6.36"/>
        <circle cx="76.33" cy="120.93" r="6.36"/>
        <circle cx="48.82" cy="104.93" r="6.33"/>
        <circle cx="93.22" cy="123.77" r="6.33"/>
        <circle cx="67.24" cy="105.36" r="6.33"/>
        <circle cx="41.35" cy="86.84" r="6.33"/>
        <circle cx="58.46" cy="90.16" r="6.33"/>
        <circle cx="86.35" cy="106.06" r="6.33"/>
        <circle cx="112.12" cy="124.78" r="6.36"/>
        <circle cx="52.28" cy="72.33" r="6.36"/>
        <circle cx="78.00" cy="91.22" r="6.36"/>
        <circle cx="103.70" cy="110.20" r="6.36"/>
        <circle cx="69.76" cy="76.61" r="6.36"/>
        <circle cx="64.73" cy="59.10" r="6.36"/>
        <circle cx="98.49" cy="92.86" r="6.36"/>
        <circle cx="90.52" cy="78.61" r="6.36"/>
        <circle cx="82.56" cy="64.47" r="6.36"/>
        <circle cx="124.27" cy="112.55" r="6.36"/>
        <circle cx="116.28" cy="98.56" r="6.36"/>
        <circle cx="78.54" cy="47.30" r="6.36"/>
        <circle cx="112.47" cy="81.63" r="6.36"/>
        <circle cx="104.58" cy="67.76" r="6.36"/>
        <circle cx="96.68" cy="53.90" r="6.36"/>
        <circle cx="93.55" cy="37.07" r="6.36"/>
        <circle cx="130.61" cy="89.15" r="6.36"/>
        <circle cx="138.57" cy="102.93" r="6.36"/>
        <circle cx="111.94" cy="45.06" r="6.36"/>
        <circle cx="119.95" cy="58.84" r="6.36"/>
        <circle cx="127.97" cy="72.62" r="6.36"/>
        <circle cx="109.58" cy="28.52" r="6.36"/>
        <circle cx="128.13" cy="38.04" r="6.36"/>
        <circle cx="146.30" cy="82.24" r="6.36"/>
        <circle cx="136.35" cy="52.01" r="6.36"/>
        <circle cx="126.44" cy="21.77" r="6.36"/>
        <circle cx="144.65" cy="66.04" r="6.36"/>
        <circle cx="154.48" cy="96.30" r="6.36"/>
        <circle cx="145.02" cy="32.97" r="6.36"/>
        <circle cx="143.94" cy="16.89" r="6.36"/>
        <circle cx="153.50" cy="47.39" r="6.36"/>
        <circle cx="162.92" cy="78.01" r="6.36"/>
        <circle cx="162.12" cy="62.03" r="6.36"/>
        <circle cx="162.39" cy="29.89" r="6.36"/>
        <circle cx="161.86" cy="13.94" r="6.36"/>
        <circle cx="171.38" cy="92.93" r="6.36"/>
        <circle cx="171.12" cy="45.06" r="6.36"/>
        <circle cx="180.00" cy="76.59" r="6.36"/>
        <circle cx="180.00" cy="60.68" r="6.36"/>
        <circle cx="180.00" cy="28.86" r="6.36"/>
        <circle cx="180.00" cy="12.95" r="6.36"/>
        <circle cx="188.88" cy="45.06" r="6.36"/>
        <circle cx="188.62" cy="92.93" r="6.36"/>
        <circle cx="198.14" cy="13.94" r="6.36"/>
        <circle cx="197.61" cy="29.89" r="6.36"/>
        <circle cx="197.88" cy="62.03" r="6.36"/>
        <circle cx="197.08" cy="78.01" r="6.36"/>
        <circle cx="206.50" cy="47.39" r="6.36"/>
        <circle cx="216.06" cy="16.89" r="6.36"/>
        <circle cx="214.98" cy="32.97" r="6.36"/>
        <circle cx="205.52" cy="96.30" r="6.36"/>
        <circle cx="215.35" cy="66.04" r="6.36"/>
        <circle cx="233.56" cy="21.77" r="6.36"/>
        <circle cx="223.65" cy="52.01" r="6.36"/>
        <circle cx="213.70" cy="82.24" r="6.36"/>
        <circle cx="231.87" cy="38.04" r="6.36"/>
        <circle cx="250.42" cy="28.52" r="6.36"/>
        <circle cx="232.03" cy="72.62" r="6.36"/>
        <circle cx="240.05" cy="58.84" r="6.36"/>
        <circle cx="248.06" cy="45.06" r="6.36"/>
        <circle cx="221.43" cy="102.93" r="6.36"/>
        <circle cx="229.39" cy="89.15" r="6.36"/>
        <circle cx="266.45" cy="37.07" r="6.36"/>
        <circle cx="263.32" cy="53.90" r="6.36"/>
        <circle cx="255.42" cy="67.76" r="6.36"/>
        <circle cx="247.53" cy="81.63" r="6.36"/>
        <circle cx="281.46" cy="47.30" r="6.36"/>
        <circle cx="243.72" cy="98.56" r="6.36"/>
        <circle cx="235.73" cy="112.55" r="6.36"/>
        <circle cx="277.44" cy="64.47" r="6.36"/>
        <circle cx="269.48" cy="78.61" r="6.36"/>
        <circle cx="261.51" cy="92.86" r="6.36"/>
        <circle cx="295.27" cy="59.10" r="6.36"/>
        <circle cx="290.24" cy="76.61" r="6.36"/>
        <circle cx="256.30" cy="110.20" r="6.36"/>
        <circle cx="282.00" cy="91.22" r="6.36"/>
        <circle cx="307.72" cy="72.33" r="6.36"/>
        <circle cx="247.88" cy="124.78" r="6.36"/>
        <circle cx="273.65" cy="106.06" r="6.36"/>
        <circle cx="301.54" cy="90.16" r="6.36"/>
        <circle cx="318.65" cy="86.84" r="6.36"/>
        <circle cx="292.76" cy="105.36" r="6.36"/>
        <circle cx="266.78" cy="123.77" r="6.36"/>
        <circle cx="311.18" cy="104.93" r="6.36"/>
        <circle cx="283.67" cy="120.93" r="6.36"/>
        <circle cx="257.38" cy="139.16" r="6.36"/>
        <circle cx="327.95" cy="102.44" r="6.36"/>
        <circle cx="301.57" cy="120.78" r="6.36"/>
        <circle cx="274.88" cy="138.88" r="6.36"/>
        <circle cx="319.03" cy="120.73" r="6.36"/>
        <circle cx="335.50" cy="118.97" r="6.36"/>
        <circle cx="291.35" cy="137.13" r="6.36"/>
        <circle cx="308.29" cy="137.23" r="6.36"/>
        <circle cx="263.89" cy="155.12" r="6.36"/>
        <circle cx="324.99" cy="137.33" r="6.36"/>
        <circle cx="341.20" cy="136.21" r="6.36"/>
        <circle cx="280.37" cy="155.12" r="6.36"/>
        <circle cx="296.52" cy="154.30" r="6.36"/>
        <circle cx="312.79" cy="154.42" r="6.36"/>
        <circle cx="328.97" cy="154.51" r="6.36"/>
        <circle cx="345.01" cy="153.97" r="6.36"/>
        <circle cx="267.14" cy="172.05" r="6.36"/>
        <circle cx="283.10" cy="172.05" r="6.36"/>
        <circle cx="299.05" cy="172.05" r="6.36"/>
        <circle cx="314.99" cy="172.05" r="6.36"/>
        <circle cx="330.93" cy="172.05" r="6.36"/>
        <circle cx="346.86" cy="172.05" r="6.36"/>
    </g>
</svg>

