<svg focusable="false" aria-hidden="true" viewBox="0 0 101 24" fill="none" xmlns="http://www.w3.org/2000/svg">
  <path d="M95.1652 0.258789H53.4994C50.9455 0.258789 48.8751 2.32916 48.8751 4.8831V19.1172C48.8751 21.6712 50.9455 23.7415 53.4994 23.7415H95.1652C97.7191 23.7415 99.7895 21.6712 99.7895 19.1172V4.8831C99.7895 2.32916 97.7191 0.258789 95.1652 0.258789Z" fill="#5541F0"/>
  <path d="M54.7851 6.36875H57.6319V8.17481C58.2809 6.90139 59.5992 6.18509 61.2665 6.18509C63.9052 6.18509 65.6173 8.08297 65.6173 10.8155V18.0377H62.7705V11.4155C62.7705 9.8176 61.7991 8.70744 60.34 8.70744C58.7421 8.70744 57.6319 9.95841 57.6319 11.6706V18.0356H54.7851V6.36875Z" fill="white"/>
  <path d="M85.1594 14.148H87.7512C87.8675 15.2582 88.7226 15.9541 89.996 15.9541C91.1061 15.9541 91.8469 15.399 91.8469 14.7031C91.8469 12.1114 85.4574 14.5868 85.4574 9.65638C85.4574 7.61973 87.2389 6.18509 89.647 6.18509C92.3775 6.18509 94.253 7.68911 94.3693 9.95841H91.7775C91.6163 8.8707 90.6205 8.31562 89.7164 8.31562C88.6981 8.31562 88.0267 8.77886 88.0267 9.56659C88.0267 12.0889 94.508 9.3115 94.508 14.5888C94.508 16.7888 92.7265 18.2234 89.9939 18.2234C87.2614 18.2234 85.2941 16.65 85.1554 14.1501L85.1594 14.148Z" fill="white"/>
  <path d="M81.6739 6.36875C81.031 9.47272 80.1107 12.6114 79.2699 15.0235H79.1903C78.3985 12.795 77.6189 9.938 76.972 7.02791C76.923 6.80955 76.8761 6.58915 76.8291 6.3708H74.2741C74.2272 6.5912 74.1803 6.80955 74.1313 7.02791C73.4844 9.938 72.7028 12.795 71.913 15.0235H71.8334C70.9886 12.6093 70.0723 9.48088 69.4294 6.36875H66.5704C67.7458 11.0665 69.2988 15.9398 70.309 18.0316H73.5211C74.0925 16.6561 74.8109 14.4133 75.5537 11.8318C76.2965 14.4133 77.0149 16.6561 77.5863 18.0316H80.7963C81.8065 15.9398 83.3595 11.0645 84.535 6.36875H81.6739Z" fill="white"/>
  <path d="M38.1898 3.09949C37.4613 2.4485 37.0409 1.46282 36.9613 0.258789H32.5696C32.6064 1.16079 32.7533 2.02199 33.0125 2.8342C33.4574 4.22598 34.2369 5.44838 35.2655 6.36875C36.2817 7.27688 37.5001 7.88298 38.8898 8.17277C39.4837 8.29521 40.0979 8.35847 40.7285 8.35847H42.1285V3.96885H40.7367C39.7102 3.96885 38.8347 3.67498 38.1919 3.09949" fill="#031037"/>
  <path d="M29.8085 4.91779C24.4863 4.91779 17.6886 6.09121 19.4334 21.6355H24.2087C24.0271 19.6193 23.8945 17.9622 23.8802 16.3418C23.8802 11.7236 25.0454 9.04008 29.7412 9.23191L30.7044 9.26864V4.96881C30.3881 4.93208 29.9106 4.91983 29.8106 4.91779" fill="#031037"/>
  <path d="M42.1264 16.752C41.2693 17.1806 40.2102 17.4255 39.4775 17.4255C38.1021 17.4255 37.3837 16.9887 37.1042 15.3235C36.896 14.0868 36.8205 11.5543 37.0552 9.2666H32.4921C32.2717 11.9889 32.2574 13.6685 32.6125 16.05C33.1717 19.807 35.4328 21.8661 39.2327 21.8396C40.6142 21.8314 41.804 21.5539 43.4794 20.6743L42.1264 16.752Z" fill="#031037"/>
  <path d="M9.82767 17.8397C10.4991 16.0806 11.0868 14.4072 11.697 12.5848C12.5357 10.0849 13.4112 7.38912 14.0663 4.96881H19.1314C18.2457 7.75033 17.2743 10.5298 16.2029 13.3562C15.1315 16.1827 14.0949 18.9417 12.8582 21.6355H6.62168C5.38703 18.9417 4.35034 16.1827 3.27691 13.3562C2.20552 10.5298 1.23413 7.75033 0.34845 4.96881H5.41356C6.06659 7.39116 6.94411 10.087 7.78285 12.5848C8.39303 14.4072 8.98077 16.0786 9.65217 17.8397H9.82767Z" fill="#031037"/>
</svg>
